<?xml version="1.0" encoding="UTF-8"?>
<!DOCTYPE svg PUBLIC "-//W3C//DTD SVG 1.1//EN" "http://www.w3.org/Graphics/SVG/1.1/DTD/svg11.dtd">
<svg xmlns="http://www.w3.org/2000/svg" version="1.1" width="512px" height="512px" style="shape-rendering:geometricPrecision; text-rendering:geometricPrecision; image-rendering:optimizeQuality; fill-rule:evenodd; clip-rule:evenodd" xmlns:xlink="http://www.w3.org/1999/xlink">
<g><path style="opacity:0.987" fill="#000000" d="M 238.5,-0.5 C 249.833,-0.5 261.167,-0.5 272.5,-0.5C 330.896,8.94996 370.729,41.2833 392,96.5C 409.24,155.678 396.073,206.845 352.5,250C 337.38,262.925 320.38,272.759 301.5,279.5C 300.667,304.493 300.167,329.493 300,354.5C 290.519,382.831 271.019,393.998 241.5,388C 227,382.833 217.167,373 212,358.5C 210.355,316.213 210.022,273.879 211,231.5C 215.833,213.333 227.333,201.833 245.5,197C 270.967,198.189 290.133,188.023 303,166.5C 313.678,140.219 308.178,118.052 286.5,100C 261.261,84.9078 237.761,87.4078 216,107.5C 208.985,115.534 204.651,124.867 203,135.5C 202.716,170.451 185.216,187.951 150.5,188C 124.955,182.265 111.955,166.265 111.5,140C 114.222,86.527 138.222,45.8603 183.5,18C 200.776,8.29725 219.109,2.13058 238.5,-0.5 Z"/></g>
<g><path style="opacity:0.975" fill="#000000" d="M 265.5,511.5 C 258.833,511.5 252.167,511.5 245.5,511.5C 219.349,502.561 207.849,484.227 211,456.5C 220.481,428.169 239.981,417.002 269.5,423C 293.49,432.8 303.656,450.633 300,476.5C 294.984,494.682 283.484,506.348 265.5,511.5 Z"/></g>
</svg>
