<?xml version="1.0" standalone="no"?>
<!DOCTYPE svg PUBLIC "-//W3C//DTD SVG 20010904//EN"
 "http://www.w3.org/TR/2001/REC-SVG-20010904/DTD/svg10.dtd">
<svg version="1.0" xmlns="http://www.w3.org/2000/svg"
 width="512.000000pt" height="512.000000pt" viewBox="0 0 512.000000 512.000000"
 preserveAspectRatio="xMidYMid meet">

<g transform="translate(0.000000,512.000000) scale(0.100000,-0.100000)"
fill="#000000" stroke="none">
<path d="M2344 4675 c-258 -46 -504 -174 -689 -360 -220 -220 -348 -501 -371
-812 l-7 -93 322 0 321 0 0 33 c1 65 31 174 71 257 33 67 59 102 123 165 136
135 284 192 466 181 187 -11 342 -75 455 -190 111 -112 155 -220 155 -382 0
-200 -84 -392 -250 -567 -47 -51 -122 -108 -275 -210 -262 -176 -360 -267
-423 -397 -75 -153 -100 -300 -105 -615 l-2 -190 316 -3 316 -2 7 132 c10 177
28 266 77 366 54 112 129 189 342 354 208 161 284 231 352 323 307 414 366
905 161 1330 -163 339 -460 566 -866 662 -134 31 -372 40 -496 18z"/>
<path d="M2137 1063 c-4 -3 -7 -147 -7 -320 l0 -313 320 0 320 0 0 320 0 320
-313 0 c-173 0 -317 -3 -320 -7z"/>
</g>
</svg>
