<?xml version="1.0" encoding="UTF-8"?>
<!DOCTYPE svg PUBLIC "-//W3C//DTD SVG 1.1//EN" "http://www.w3.org/Graphics/SVG/1.1/DTD/svg11.dtd">
<svg xmlns="http://www.w3.org/2000/svg" version="1.1" width="2048px" height="2048px" style="shape-rendering:geometricPrecision; text-rendering:geometricPrecision; image-rendering:optimizeQuality; fill-rule:evenodd; clip-rule:evenodd" xmlns:xlink="http://www.w3.org/1999/xlink">
<g><path style="opacity:0.999" fill="#979593" d="M 511.5,1578.5 C 525.833,1578.5 540.167,1578.5 554.5,1578.5C 554.333,1672.5 554.5,1766.5 555,1860.5C 556.627,1868.13 561.127,1873.3 568.5,1876C 985.5,1876.67 1402.5,1876.67 1819.5,1876C 1827.26,1873.07 1831.93,1867.57 1833.5,1859.5C 1834.5,1438.67 1834.83,1017.67 1834.5,596.5C 1712.17,596.5 1589.83,596.5 1467.5,596.5C 1439.97,593.646 1421.14,579.312 1411,553.5C 1409.59,549.261 1408.59,544.928 1408,540.5C 1407.5,417.167 1407.33,293.834 1407.5,170.5C 1127.83,170.333 848.166,170.5 568.5,171C 562,173.5 557.5,178 555,184.5C 554.5,364.5 554.333,544.5 554.5,724.5C 540.167,724.5 525.833,724.5 511.5,724.5C 511.333,543.166 511.5,361.833 512,180.5C 518.167,151.667 535.667,134.167 564.5,128C 857.5,127.333 1150.5,127.333 1443.5,128C 1454.96,130.23 1465.29,134.897 1474.5,142C 1603.67,271.167 1732.83,400.333 1862,529.5C 1870.69,539.9 1875.69,551.9 1877,565.5C 1877.17,781.667 1877.33,997.833 1877.5,1214C 1877.33,1430.17 1877.17,1646.33 1877,1862.5C 1871.82,1893.35 1853.98,1912.18 1823.5,1919C 1613.67,1919.17 1403.83,1919.33 1194,1919.5C 984.167,1919.33 774.333,1919.17 564.5,1919C 535.667,1912.83 518.167,1895.33 512,1866.5C 511.5,1770.5 511.333,1674.5 511.5,1578.5 Z"/></g>
<g><path style="opacity:1" fill="#fefefe" d="M 1467.5,596.5 C 1589.33,597.5 1711.33,597.833 1833.5,597.5C 1833.5,1018.17 1833.5,1438.83 1833.5,1859.5C 1831.93,1867.57 1827.26,1873.07 1819.5,1876C 1402.5,1876.67 985.5,1876.67 568.5,1876C 561.127,1873.3 556.627,1868.13 555,1860.5C 554.5,1766.5 554.333,1672.5 554.5,1578.5C 684.167,1578.67 813.834,1578.5 943.5,1578C 988.171,1572 1014.67,1546.83 1023,1502.5C 1023.5,1477.84 1023.67,1453.17 1023.5,1428.5C 1245.5,1428.67 1467.5,1428.5 1689.5,1428C 1700.25,1425.24 1705.92,1418.24 1706.5,1407C 1705.61,1397.22 1700.61,1390.55 1691.5,1387C 1468.83,1386.5 1246.17,1386.33 1023.5,1386.5C 1023.5,1357.83 1023.5,1329.17 1023.5,1300.5C 1245.5,1300.67 1467.5,1300.5 1689.5,1300C 1700.25,1297.24 1705.92,1290.24 1706.5,1279C 1705.61,1269.22 1700.61,1262.55 1691.5,1259C 1468.83,1258.5 1246.17,1258.33 1023.5,1258.5C 1023.5,1229.83 1023.5,1201.17 1023.5,1172.5C 1245.5,1172.67 1467.5,1172.5 1689.5,1172C 1700.25,1169.24 1705.92,1162.24 1706.5,1151C 1705.61,1141.22 1700.61,1134.55 1691.5,1131C 1468.83,1130.5 1246.17,1130.33 1023.5,1130.5C 1023.5,1101.83 1023.5,1073.17 1023.5,1044.5C 1245.5,1044.67 1467.5,1044.5 1689.5,1044C 1700.25,1041.24 1705.92,1034.24 1706.5,1023C 1705.61,1013.22 1700.61,1006.55 1691.5,1003C 1468.83,1002.5 1246.17,1002.33 1023.5,1002.5C 1023.5,973.833 1023.5,945.167 1023.5,916.5C 1245.5,916.667 1467.5,916.5 1689.5,916C 1700.25,913.238 1705.92,906.238 1706.5,895C 1705.61,885.216 1700.61,878.55 1691.5,875C 1468.83,874.5 1246.17,874.333 1023.5,874.5C 1023.67,849.164 1023.5,823.831 1023,798.5C 1013.8,755.299 987.299,730.799 943.5,725C 813.834,724.5 684.167,724.333 554.5,724.5C 554.333,544.5 554.5,364.5 555,184.5C 557.5,178 562,173.5 568.5,171C 848.166,170.5 1127.83,170.333 1407.5,170.5C 1407.33,293.834 1407.5,417.167 1408,540.5C 1408.59,544.928 1409.59,549.261 1411,553.5C 1421.14,579.312 1439.97,593.646 1467.5,596.5 Z"/></g>
<g><path style="opacity:1" fill="#b9b8b7" d="M 1451.5,180.5 C 1450.5,298.665 1450.17,416.999 1450.5,535.5C 1449.33,416.667 1449.17,297.667 1450,178.5C 1450.72,179.044 1451.22,179.711 1451.5,180.5 Z"/></g>
<g><path style="opacity:1" fill="#fefefe" d="M 1451.5,180.5 C 1575.83,304.167 1699.83,428.167 1823.5,552.5C 1704.67,553.5 1585.67,553.833 1466.5,553.5C 1457.26,550.933 1451.93,544.933 1450.5,535.5C 1450.17,416.999 1450.5,298.665 1451.5,180.5 Z"/></g>
<g><path style="opacity:1" fill="#dbdbda" d="M 1823.5,552.5 C 1824.29,552.783 1824.96,553.283 1825.5,554C 1705.67,554.833 1586,554.666 1466.5,553.5C 1585.67,553.833 1704.67,553.5 1823.5,552.5 Z"/></g>
<g><path style="opacity:1" fill="#dbdbda" d="M 1467.5,596.5 C 1589.83,596.5 1712.17,596.5 1834.5,596.5C 1834.83,1017.67 1834.5,1438.67 1833.5,1859.5C 1833.5,1438.83 1833.5,1018.17 1833.5,597.5C 1711.33,597.833 1589.33,597.5 1467.5,596.5 Z"/></g>
<g><path style="opacity:0.999" fill="#185abd" d="M 511.5,724.5 C 525.833,724.5 540.167,724.5 554.5,724.5C 684.167,724.333 813.834,724.5 943.5,725C 987.299,730.799 1013.8,755.299 1023,798.5C 1023.5,823.831 1023.67,849.164 1023.5,874.5C 1023.5,888.5 1023.5,902.5 1023.5,916.5C 1023.5,945.167 1023.5,973.833 1023.5,1002.5C 1023.5,1016.5 1023.5,1030.5 1023.5,1044.5C 1023.5,1073.17 1023.5,1101.83 1023.5,1130.5C 1023.5,1144.5 1023.5,1158.5 1023.5,1172.5C 1023.5,1201.17 1023.5,1229.83 1023.5,1258.5C 1023.5,1272.5 1023.5,1286.5 1023.5,1300.5C 1023.5,1329.17 1023.5,1357.83 1023.5,1386.5C 1023.5,1400.5 1023.5,1414.5 1023.5,1428.5C 1023.67,1453.17 1023.5,1477.84 1023,1502.5C 1014.67,1546.83 988.171,1572 943.5,1578C 813.834,1578.5 684.167,1578.67 554.5,1578.5C 540.167,1578.5 525.833,1578.5 511.5,1578.5C 422.499,1578.67 333.499,1578.5 244.5,1578C 209.919,1572.42 186.419,1553.25 174,1520.5C 172.031,1513.96 170.697,1507.29 170,1500.5C 169.333,1267.83 169.333,1035.17 170,802.5C 175.2,763.962 196.367,738.796 233.5,727C 237.147,726.226 240.814,725.559 244.5,725C 333.499,724.5 422.499,724.333 511.5,724.5 Z"/></g>
<g><path style="opacity:1" fill="#c8c6c4" d="M 1023.5,874.5 C 1246.17,874.333 1468.83,874.5 1691.5,875C 1700.61,878.55 1705.61,885.216 1706.5,895C 1705.92,906.238 1700.25,913.238 1689.5,916C 1467.5,916.5 1245.5,916.667 1023.5,916.5C 1023.5,902.5 1023.5,888.5 1023.5,874.5 Z"/></g>
<g><path style="opacity:1" fill="#fefefe" d="M 298.5,938.5 C 328.74,938.171 358.907,938.505 389,939.5C 412,1050.5 435,1161.5 458,1272.5C 460.131,1289.18 462.297,1305.84 464.5,1322.5C 466.843,1305.09 469.676,1287.76 473,1270.5C 498.305,1160.14 523.805,1049.81 549.5,939.5C 565.833,939.167 582.167,938.833 598.5,938.5C 615.219,938.507 631.719,939.174 648,940.5C 673.868,1049.64 700.201,1158.64 727,1267.5C 730.627,1285.39 733.46,1303.39 735.5,1321.5C 737.396,1303.76 739.896,1286.09 743,1268.5C 764.319,1159.23 785.319,1049.89 806,940.5C 820.779,939.175 835.779,938.508 851,938.5C 865.833,938.667 880.667,938.833 895.5,939C 858.62,1095.02 822.287,1251.19 786.5,1407.5C 751.827,1407.83 717.16,1407.5 682.5,1406.5C 658.317,1304.43 633.817,1202.43 609,1100.5C 603.804,1077.29 599.304,1053.96 595.5,1030.5C 590.567,1058.19 585.401,1085.86 580,1113.5C 557.681,1211.08 535.681,1308.74 514,1406.5C 478.905,1407.66 443.738,1407.83 408.5,1407C 371.675,1250.89 335.008,1094.72 298.5,938.5 Z"/></g>
<g><path style="opacity:1" fill="#c8c6c4" d="M 1023.5,1002.5 C 1246.17,1002.33 1468.83,1002.5 1691.5,1003C 1700.61,1006.55 1705.61,1013.22 1706.5,1023C 1705.92,1034.24 1700.25,1041.24 1689.5,1044C 1467.5,1044.5 1245.5,1044.67 1023.5,1044.5C 1023.5,1030.5 1023.5,1016.5 1023.5,1002.5 Z"/></g>
<g><path style="opacity:1" fill="#c8c6c4" d="M 1023.5,1130.5 C 1246.17,1130.33 1468.83,1130.5 1691.5,1131C 1700.61,1134.55 1705.61,1141.22 1706.5,1151C 1705.92,1162.24 1700.25,1169.24 1689.5,1172C 1467.5,1172.5 1245.5,1172.67 1023.5,1172.5C 1023.5,1158.5 1023.5,1144.5 1023.5,1130.5 Z"/></g>
<g><path style="opacity:1" fill="#c8c6c4" d="M 1023.5,1258.5 C 1246.17,1258.33 1468.83,1258.5 1691.5,1259C 1700.61,1262.55 1705.61,1269.22 1706.5,1279C 1705.92,1290.24 1700.25,1297.24 1689.5,1300C 1467.5,1300.5 1245.5,1300.67 1023.5,1300.5C 1023.5,1286.5 1023.5,1272.5 1023.5,1258.5 Z"/></g>
<g><path style="opacity:1" fill="#c8c6c4" d="M 1023.5,1386.5 C 1246.17,1386.33 1468.83,1386.5 1691.5,1387C 1700.61,1390.55 1705.61,1397.22 1706.5,1407C 1705.92,1418.24 1700.25,1425.24 1689.5,1428C 1467.5,1428.5 1245.5,1428.67 1023.5,1428.5C 1023.5,1414.5 1023.5,1400.5 1023.5,1386.5 Z"/></g>
</svg>
