<?xml version="1.0" encoding="UTF-8"?>
<!DOCTYPE svg PUBLIC "-//W3C//DTD SVG 1.1//EN" "http://www.w3.org/Graphics/SVG/1.1/DTD/svg11.dtd">
<svg xmlns="http://www.w3.org/2000/svg" version="1.1" width="512px" height="512px" style="shape-rendering:geometricPrecision; text-rendering:geometricPrecision; image-rendering:optimizeQuality; fill-rule:evenodd; clip-rule:evenodd" xmlns:xlink="http://www.w3.org/1999/xlink">
<g><path style="opacity:0.998" fill="#f0f0f0" d="M 63.5,-0.5 C 156.833,-0.5 250.167,-0.5 343.5,-0.5C 343.5,32.1667 343.5,64.8333 343.5,97.5C 342.889,103.434 343.722,109.1 346,114.5C 347.637,116.81 349.804,118.31 352.5,119C 386.165,119.5 419.832,119.667 453.5,119.5C 453.5,151.167 453.5,182.833 453.5,214.5C 452.508,222.316 452.174,230.316 452.5,238.5C 321.167,238.5 189.833,238.5 58.5,238.5C 58.5,230.5 58.5,222.5 58.5,214.5C 58.3333,144.833 58.5,75.1659 59,5.5C 60.332,3.34004 61.832,1.34004 63.5,-0.5 Z"/></g>
<g><path style="opacity:1" fill="#cccccc" d="M 343.5,-0.5 C 345.167,-0.5 346.833,-0.5 348.5,-0.5C 382.833,34.1667 417.167,68.8333 451.5,103.5C 451.5,104.5 451.5,105.5 451.5,106.5C 418.832,106.667 386.165,106.5 353.5,106C 348.721,104.711 345.388,101.877 343.5,97.5C 343.5,64.8333 343.5,32.1667 343.5,-0.5 Z"/></g>
<g><path style="opacity:0.993" fill="#e8e8e8" d="M 343.5,97.5 C 345.388,101.877 348.721,104.711 353.5,106C 386.165,106.5 418.832,106.667 451.5,106.5C 451.5,105.5 451.5,104.5 451.5,103.5C 453.26,108.553 453.927,113.886 453.5,119.5C 419.832,119.667 386.165,119.5 352.5,119C 349.804,118.31 347.637,116.81 346,114.5C 343.722,109.1 342.889,103.434 343.5,97.5 Z"/></g>
<g><path style="opacity:0.986" fill="#088faf" d="M 58.5,214.5 C 58.5,222.5 58.5,230.5 58.5,238.5C 50.1122,238.227 41.7788,238.56 33.5,239.5C 41.5,230.833 49.8333,222.5 58.5,214.5 Z"/></g>
<g><path style="opacity:0.985" fill="#0a90b0" d="M 453.5,214.5 C 461.833,223.167 470.167,231.833 478.5,240.5C 470.001,238.626 461.334,237.96 452.5,238.5C 452.174,230.316 452.508,222.316 453.5,214.5 Z"/></g>
<g><path style="opacity:0.999" fill="#29abe1" d="M 58.5,238.5 C 189.833,238.5 321.167,238.5 452.5,238.5C 461.334,237.96 470.001,238.626 478.5,240.5C 480.41,241.975 481.576,243.975 482,246.5C 482.667,298.833 482.667,351.167 482,403.5C 481.167,408.333 478.333,411.167 473.5,412C 466.842,412.5 460.175,412.666 453.5,412.5C 321.736,411.168 190.069,411.168 58.5,412.5C 51.4921,412.666 44.4921,412.5 37.5,412C 32.6667,411.167 29.8333,408.333 29,403.5C 28.3333,351.167 28.3333,298.833 29,246.5C 29.5158,243.453 31.0158,241.12 33.5,239.5C 41.7788,238.56 50.1122,238.227 58.5,238.5 Z"/></g>
<g><path style="opacity:1" fill="#fcfefe" d="M 121.5,295.5 C 133.547,295.135 145.547,295.635 157.5,297C 170.122,299.621 178.289,307.121 182,319.5C 183.876,331.096 182.209,342.096 177,352.5C 171.56,359.6 164.394,363.767 155.5,365C 143.833,365.667 132.167,365.667 120.5,365C 119.667,364.167 118.833,363.333 118,362.5C 116.357,341.923 116.024,321.256 117,300.5C 118.025,298.313 119.525,296.646 121.5,295.5 Z"/></g>
<g><path style="opacity:1" fill="#fcfefe" d="M 221.5,294.5 C 251.657,293.808 265.157,308.474 262,338.5C 259.609,353.89 250.776,363.057 235.5,366C 204.699,368.532 190.532,354.365 193,323.5C 196.013,307.321 205.513,297.654 221.5,294.5 Z"/></g>
<g><path style="opacity:1" fill="#fcfdfe" d="M 299.5,294.5 C 311.512,293.543 322.345,296.543 332,303.5C 333.923,311.229 331.09,314.729 323.5,314C 299.084,303.728 288.251,311.895 291,338.5C 294.002,349.485 301.169,353.985 312.5,352C 316.985,350.003 321.485,348.17 326,346.5C 332.439,348.317 334.105,352.317 331,358.5C 323.811,364.544 315.478,367.211 306,366.5C 289.849,366.427 279.182,358.761 274,343.5C 267.861,319.099 276.361,302.766 299.5,294.5 Z"/></g>
<g><path style="opacity:1" fill="#fcfdfe" d="M 340.5,295.5 C 343.518,295.335 346.518,295.502 349.5,296C 355.548,303.26 361.715,310.427 368,317.5C 374.208,310.961 380.041,304.127 385.5,297C 392.641,293.615 397.308,295.615 399.5,303C 399.091,305.321 398.257,307.487 397,309.5C 390.779,316.051 384.945,322.884 379.5,330C 379.862,331.225 380.362,332.391 381,333.5C 387.374,340.206 393.374,347.206 399,354.5C 400.32,364.512 396.154,368.012 386.5,365C 380.707,357.539 374.541,350.372 368,343.5C 361.459,350.372 355.293,357.539 349.5,365C 338.491,367.654 334.657,363.487 338,352.5C 344.762,345.579 350.929,338.246 356.5,330.5C 349.842,322.335 343.342,314.002 337,305.5C 336.182,301.469 337.349,298.136 340.5,295.5 Z"/></g>
<g><path style="opacity:1" fill="#2eace1" d="M 222.5,308.5 C 233.76,307.039 240.927,311.705 244,322.5C 245.011,330 244.345,337.333 242,344.5C 237.037,351.714 230.203,354.214 221.5,352C 215.17,348.864 211.67,343.697 211,336.5C 208.145,324.196 211.978,314.863 222.5,308.5 Z"/></g>
<g><path style="opacity:1" fill="#b1dff4" d="M 135.5,310.5 C 135.5,323.833 135.5,337.167 135.5,350.5C 140.167,350.5 144.833,350.5 149.5,350.5C 144.695,351.487 139.695,351.821 134.5,351.5C 134.171,337.656 134.504,323.99 135.5,310.5 Z"/></g>
<g><path style="opacity:1" fill="#2babe1" d="M 135.5,310.5 C 159.748,307.577 168.914,317.911 163,341.5C 160.229,347.106 155.729,350.106 149.5,350.5C 144.833,350.5 140.167,350.5 135.5,350.5C 135.5,337.167 135.5,323.833 135.5,310.5 Z"/></g>
<g><path style="opacity:1" fill="#dfe0e0" d="M 453.5,412.5 C 453.5,416.5 453.5,420.5 453.5,424.5C 321.833,424.5 190.167,424.5 58.5,424.5C 58.5,420.5 58.5,416.5 58.5,412.5C 190.069,411.168 321.736,411.168 453.5,412.5 Z"/></g>
<g><path style="opacity:0.996" fill="#f0f0f0" d="M 58.5,424.5 C 190.167,424.5 321.833,424.5 453.5,424.5C 453.667,450.502 453.5,476.502 453,502.5C 452.206,506.129 450.372,509.129 447.5,511.5C 319.833,511.5 192.167,511.5 64.5,511.5C 62.193,510.023 60.3597,508.023 59,505.5C 58.5,478.502 58.3334,451.502 58.5,424.5 Z"/></g>
</svg>
