<?xml version="1.0" encoding="UTF-8"?>
<!DOCTYPE svg PUBLIC "-//W3C//DTD SVG 1.1//EN" "http://www.w3.org/Graphics/SVG/1.1/DTD/svg11.dtd">
<svg xmlns="http://www.w3.org/2000/svg" version="1.1" width="1920px" height="1920px" style="shape-rendering:geometricPrecision; text-rendering:geometricPrecision; image-rendering:optimizeQuality; fill-rule:evenodd; clip-rule:evenodd" xmlns:xlink="http://www.w3.org/1999/xlink">
<g><path style="opacity:0.999" fill="#fefefe" d="M 234.5,-0.5 C 717.833,-0.5 1201.17,-0.5 1684.5,-0.5C 1772.89,10.9219 1840.06,54.5886 1886,130.5C 1904.29,163.011 1915.45,197.678 1919.5,234.5C 1919.5,717.833 1919.5,1201.17 1919.5,1684.5C 1908.08,1772.89 1864.41,1840.06 1788.5,1886C 1755.99,1904.29 1721.32,1915.45 1684.5,1919.5C 1201.17,1919.5 717.833,1919.5 234.5,1919.5C 146.106,1908.08 78.9394,1864.41 33,1788.5C 14.6664,1756 3.49971,1721.34 -0.5,1684.5C -0.5,1201.17 -0.5,717.833 -0.5,234.5C 10.9219,146.106 54.5886,78.9394 130.5,33C 162.997,14.6664 197.663,3.49971 234.5,-0.5 Z"/></g>
<g><path style="opacity:1" fill="#1ba466" d="M 702.5,416.5 C 829.167,416.5 955.833,416.5 1082.5,416.5C 1082.5,506.833 1082.5,597.167 1082.5,687.5C 1035.5,687.5 988.5,687.5 941.5,687.5C 941.167,687.5 940.833,687.5 940.5,687.5C 936.08,681.744 930.747,677.078 924.5,673.5C 913.584,658.532 898.918,649.365 880.5,646C 804.167,645.5 727.834,645.333 651.5,645.5C 651.5,587.167 651.5,528.833 651.5,470.5C 651.517,468.435 651.85,466.435 652.5,464.5C 653.924,462.485 654.59,460.152 654.5,457.5C 662.853,434.976 678.853,421.309 702.5,416.5 Z"/></g>
<g><path style="opacity:1" fill="#30c582" d="M 702.5,416.5 C 954.333,415.334 1206.33,415.167 1458.5,416C 1488.03,421.196 1506.19,438.362 1513,467.5C 1513.5,631.5 1513.67,795.5 1513.5,959.5C 1513.17,959.5 1512.83,959.5 1512.5,959.5C 1512.5,868.833 1512.5,778.167 1512.5,687.5C 1369.17,687.5 1225.83,687.5 1082.5,687.5C 1082.5,597.167 1082.5,506.833 1082.5,416.5C 955.833,416.5 829.167,416.5 702.5,416.5 Z"/></g>
<g><path style="opacity:1" fill="#6cc399" d="M 654.5,457.5 C 654.59,460.152 653.924,462.485 652.5,464.5C 652.41,461.848 653.076,459.515 654.5,457.5 Z"/></g>
<g><path style="opacity:1" fill="#d9ede3" d="M 651.5,470.5 C 651.5,528.833 651.5,587.167 651.5,645.5C 563.167,645.5 474.833,645.5 386.5,645.5C 474.332,644.501 562.332,644.167 650.5,644.5C 650.168,586.331 650.501,528.331 651.5,470.5 Z"/></g>
<g><path style="opacity:1" fill="#0e864a" d="M 386.5,645.5 C 474.833,645.5 563.167,645.5 651.5,645.5C 727.834,645.333 804.167,645.5 880.5,646C 898.918,649.365 913.584,658.532 924.5,673.5C 927.996,678.822 930.662,684.489 932.5,690.5C 933.518,694.083 934.351,697.75 935,701.5C 935.5,787.499 935.667,873.499 935.5,959.5C 935.667,1039.17 935.5,1118.83 935,1198.5C 929.042,1230.13 910.208,1248.63 878.5,1254C 802.834,1254.5 727.167,1254.67 651.5,1254.5C 563.5,1254.5 475.5,1254.5 387.5,1254.5C 364.664,1253.16 347.164,1242.82 335,1223.5C 332.273,1217.98 329.94,1212.32 328,1206.5C 326.843,1120.53 326.343,1034.53 326.5,948.5C 326.667,864.833 326.833,781.167 327,697.5C 332.868,671.298 348.702,654.465 374.5,647C 378.466,646.172 382.466,645.672 386.5,645.5 Z"/></g>
<g><path style="opacity:1" fill="#0b5431" d="M 924.5,673.5 C 930.747,677.078 936.08,681.744 940.5,687.5C 937.833,687.5 935.167,687.5 932.5,687.5C 932.5,688.5 932.5,689.5 932.5,690.5C 930.662,684.489 927.996,678.822 924.5,673.5 Z"/></g>
<g><path style="opacity:1" fill="#044321" d="M 940.5,687.5 C 940.833,687.5 941.167,687.5 941.5,687.5C 941.5,688.167 941.833,688.5 942.5,688.5C 948.531,696.903 952.697,706.236 955,716.5C 955.5,797.499 955.667,878.499 955.5,959.5C 948.833,959.5 942.167,959.5 935.5,959.5C 935.667,873.499 935.5,787.499 935,701.5C 934.351,697.75 933.518,694.083 932.5,690.5C 932.5,689.5 932.5,688.5 932.5,687.5C 935.167,687.5 937.833,687.5 940.5,687.5 Z"/></g>
<g><path style="opacity:1" fill="#067c3e" d="M 942.5,688.5 C 988.833,688.5 1035.17,688.5 1081.5,688.5C 1081.5,778.833 1081.5,869.167 1081.5,959.5C 1039.83,959.5 998.167,959.5 956.5,959.5C 956.167,959.5 955.833,959.5 955.5,959.5C 955.667,878.499 955.5,797.499 955,716.5C 952.697,706.236 948.531,696.903 942.5,688.5 Z"/></g>
<g><path style="opacity:1" fill="#11894c" d="M 941.5,687.5 C 988.5,687.5 1035.5,687.5 1082.5,687.5C 1082.5,778.167 1082.5,868.833 1082.5,959.5C 1082.17,959.5 1081.83,959.5 1081.5,959.5C 1081.5,869.167 1081.5,778.833 1081.5,688.5C 1035.17,688.5 988.833,688.5 942.5,688.5C 941.833,688.5 941.5,688.167 941.5,687.5 Z"/></g>
<g><path style="opacity:1" fill="#1ba466" d="M 1082.5,687.5 C 1225.83,687.5 1369.17,687.5 1512.5,687.5C 1512.5,778.167 1512.5,868.833 1512.5,959.5C 1369.17,959.5 1225.83,959.5 1082.5,959.5C 1082.5,868.833 1082.5,778.167 1082.5,687.5 Z"/></g>
<g><path style="opacity:1" fill="#bddece" d="M 568.5,794.5 C 544.328,794.169 520.328,794.502 496.5,795.5C 495.957,795.44 495.624,795.107 495.5,794.5C 519.997,793.171 544.33,793.171 568.5,794.5 Z"/></g>
<g><path style="opacity:1" fill="#bedece" d="M 692.5,794.5 C 716.67,793.171 741.003,793.171 765.5,794.5C 765.376,795.107 765.043,795.44 764.5,795.5C 740.672,794.502 716.672,794.169 692.5,794.5 Z"/></g>
<g><path style="opacity:1" fill="#fdfefe" d="M 568.5,794.5 C 588.559,827.605 608.392,860.938 628,894.5C 631.408,896.223 633.741,895.223 635,891.5C 654.178,859.139 673.345,826.806 692.5,794.5C 716.672,794.169 740.672,794.502 764.5,795.5C 733.629,844.739 702.629,893.906 671.5,943C 705.296,996.761 738.963,1050.59 772.5,1104.5C 748.672,1105.5 724.672,1105.83 700.5,1105.5C 700.167,1105.5 699.833,1105.5 699.5,1105.5C 677.356,1068.56 655.189,1031.56 633,994.5C 630.415,993.115 628.415,993.782 627,996.5C 605.155,1032.86 583.322,1069.19 561.5,1105.5C 537.143,1106.16 513.143,1105.49 489.5,1103.5C 522.954,1050.1 556.287,996.596 589.5,943C 558.371,893.906 527.371,844.739 496.5,795.5C 520.328,794.502 544.328,794.169 568.5,794.5 Z"/></g>
<g><path style="opacity:1" fill="#0e542f" d="M 955.5,959.5 C 955.833,959.5 956.167,959.5 956.5,959.5C 956.667,1044.83 956.5,1130.17 956,1215.5C 955.79,1217.06 955.29,1218.39 954.5,1219.5C 955.487,1132.85 955.82,1046.18 955.5,959.5 Z"/></g>
<g><path style="opacity:1" fill="#077d3f" d="M 1082.5,959.5 C 1225.83,959.5 1369.17,959.5 1512.5,959.5C 1512.5,1049.83 1512.5,1140.17 1512.5,1230.5C 1369.17,1230.5 1225.83,1230.5 1082.5,1230.5C 1082.5,1140.17 1082.5,1049.83 1082.5,959.5 Z"/></g>
<g><path style="opacity:1" fill="#dfeee6" d="M 489.5,1103.5 C 513.143,1105.49 537.143,1106.16 561.5,1105.5C 536.997,1106.83 512.33,1106.83 487.5,1105.5C 487.855,1104.48 488.522,1103.81 489.5,1103.5 Z"/></g>
<g><path style="opacity:1" fill="#e0efe8" d="M 772.5,1104.5 C 773.167,1104.5 773.5,1104.83 773.5,1105.5C 749.167,1106.83 724.833,1106.83 700.5,1105.5C 724.672,1105.83 748.672,1105.5 772.5,1104.5 Z"/></g>
<g><path style="opacity:1" fill="#369a68" d="M 699.5,1105.5 C 699.833,1105.5 700.167,1105.5 700.5,1105.5C 724.833,1106.83 749.167,1106.83 773.5,1105.5C 774.043,1105.56 774.376,1105.89 774.5,1106.5C 762,1106.83 749.5,1107.17 737,1107.5C 724.148,1107.5 711.648,1106.83 699.5,1105.5 Z"/></g>
<g><path style="opacity:1" fill="#287d4f" d="M 1512.5,959.5 C 1512.83,959.5 1513.17,959.5 1513.5,959.5C 1513.83,1122.33 1513.5,1285 1512.5,1447.5C 1512.5,1375.5 1512.5,1303.5 1512.5,1231.5C 1369,1231.83 1225.67,1231.5 1082.5,1230.5C 1225.83,1230.5 1369.17,1230.5 1512.5,1230.5C 1512.5,1140.17 1512.5,1049.83 1512.5,959.5 Z"/></g>
<g><path style="opacity:1" fill="#08381e" d="M 935.5,959.5 C 942.167,959.5 948.833,959.5 955.5,959.5C 955.82,1046.18 955.487,1132.85 954.5,1219.5C 948.291,1249.21 930.291,1267.04 900.5,1273C 817.501,1273.5 734.501,1273.67 651.5,1273.5C 651.5,1267.17 651.5,1260.83 651.5,1254.5C 727.167,1254.67 802.834,1254.5 878.5,1254C 910.208,1248.63 929.042,1230.13 935,1198.5C 935.5,1118.83 935.667,1039.17 935.5,959.5 Z"/></g>
<g><path style="opacity:1" fill="#115c34" d="M 956.5,959.5 C 998.167,959.5 1039.83,959.5 1081.5,959.5C 1081.83,959.5 1082.17,959.5 1082.5,959.5C 1082.5,1049.83 1082.5,1140.17 1082.5,1230.5C 1225.67,1231.5 1369,1231.83 1512.5,1231.5C 1512.5,1303.5 1512.5,1375.5 1512.5,1447.5C 1509.72,1471.46 1497.39,1488.62 1475.5,1499C 1469.87,1500.49 1464.2,1501.82 1458.5,1503C 1333.17,1503.17 1207.83,1503.33 1082.5,1503.5C 954.478,1503.66 826.478,1503.16 698.5,1502C 671.613,1494.08 655.946,1476.25 651.5,1448.5C 651.5,1390.17 651.5,1331.83 651.5,1273.5C 734.501,1273.67 817.501,1273.5 900.5,1273C 930.291,1267.04 948.291,1249.21 954.5,1219.5C 955.29,1218.39 955.79,1217.06 956,1215.5C 956.5,1130.17 956.667,1044.83 956.5,959.5 Z"/></g>
<g><path style="opacity:1" fill="#bbd2c5" d="M 387.5,1254.5 C 475.5,1254.5 563.5,1254.5 651.5,1254.5C 651.5,1260.83 651.5,1267.17 651.5,1273.5C 651.5,1331.83 651.5,1390.17 651.5,1448.5C 650.501,1384.34 650.168,1320 650.5,1255.5C 562.665,1255.83 474.998,1255.5 387.5,1254.5 Z"/></g>
</svg>
