<?xml version="1.0" encoding="UTF-8"?>
<!DOCTYPE svg PUBLIC "-//W3C//DTD SVG 1.1//EN" "http://www.w3.org/Graphics/SVG/1.1/DTD/svg11.dtd">
<svg xmlns="http://www.w3.org/2000/svg" version="1.1" width="512px" height="512px" style="shape-rendering:geometricPrecision; text-rendering:geometricPrecision; image-rendering:optimizeQuality; fill-rule:evenodd; clip-rule:evenodd" xmlns:xlink="http://www.w3.org/1999/xlink">
<g><path style="opacity:0.984" fill="#000000" d="M 337.5,63.5 C 345.354,62.9114 353.021,63.7447 360.5,66C 365.636,69.4826 368.803,74.316 370,80.5C 371.831,98.812 373.331,117.145 374.5,135.5C 403.854,136.572 433.187,138.072 462.5,140C 470.927,142.095 476.427,147.261 479,155.5C 475.508,245.858 471.174,336.191 466,426.5C 464.915,436.915 459.415,443.749 449.5,447C 445,447.167 440.5,447.333 436,447.5C 325.114,442.696 214.281,437.196 103.5,431C 94.9232,427.674 89.7565,421.507 88,412.5C 88.5279,395.808 89.1945,379.142 90,362.5C 80.3091,365.243 70.8091,364.743 61.5,361C 55.5462,356.259 52.3795,350.092 52,342.5C 45.3885,268.162 38.7218,193.828 32,119.5C 27.5336,98.8822 35.7003,88.0489 56.5,87C 150.347,79.4872 244.013,71.6538 337.5,63.5 Z M 321.5,95.5 C 326.511,95.3341 331.511,95.5007 336.5,96C 340.471,97.8801 342.637,101.047 343,105.5C 343.744,114.85 344.577,124.183 345.5,133.5C 273.828,130.357 202.161,127.024 130.5,123.5C 115.58,122.025 106.08,128.358 102,142.5C 99.6129,188.522 96.9462,234.522 94,280.5C 88.4202,287.992 83.0869,295.659 78,303.5C 72.7356,244.257 67.2356,185.09 61.5,126C 63.8806,118.135 69.2139,114.802 77.5,116C 159.013,109.485 240.347,102.652 321.5,95.5 Z M 140.5,158.5 C 235.505,162.834 330.505,167.334 425.5,172C 437.244,169.521 444.244,174.021 446.5,185.5C 442.703,249.805 439.203,314.138 436,378.5C 434.434,379.061 433.101,378.394 432,376.5C 407.875,347.373 383.375,318.54 358.5,290C 354.259,288.543 349.926,288.209 345.5,289C 336.167,295 326.833,301 317.5,307C 310.232,307.284 304.399,304.45 300,298.5C 285.755,281.197 270.922,264.364 255.5,248C 246.942,243.174 238.608,243.508 230.5,249C 194.667,287.5 158.833,326 123,364.5C 126.017,298.84 129.351,233.173 133,167.5C 134.113,163.234 136.613,160.234 140.5,158.5 Z"/></g>
<g><path style="opacity:0.972" fill="#000000" d="M 371.5,190.5 C 393.7,192.366 406.033,204.366 408.5,226.5C 406.168,248.165 394.168,260.165 372.5,262.5C 343.851,257.554 333.017,240.887 340,212.5C 346.653,199.595 357.153,192.262 371.5,190.5 Z"/></g>
</svg>
