<?xml version="1.0" encoding="UTF-8"?>
<!DOCTYPE svg PUBLIC "-//W3C//DTD SVG 1.1//EN" "http://www.w3.org/Graphics/SVG/1.1/DTD/svg11.dtd">
<svg xmlns="http://www.w3.org/2000/svg" version="1.1" width="512px" height="512px" style="shape-rendering:geometricPrecision; text-rendering:geometricPrecision; image-rendering:optimizeQuality; fill-rule:evenodd; clip-rule:evenodd" xmlns:xlink="http://www.w3.org/1999/xlink">
<g><path style="opacity:0.986" fill="#000000" d="M 511.5,80.5 C 511.5,197.167 511.5,313.833 511.5,430.5C 506.36,445.132 496.026,453.298 480.5,455C 330.5,455.667 180.5,455.667 30.5,455C 14.9738,453.298 4.6405,445.132 -0.5,430.5C -0.5,313.833 -0.5,197.167 -0.5,80.5C 4.50997,66.3315 14.51,58.1649 29.5,56C 180.167,55.3333 330.833,55.3333 481.5,56C 496.49,58.1649 506.49,66.3315 511.5,80.5 Z M 32.5,89.5 C 181.167,89.5 329.833,89.5 478.5,89.5C 478.667,167.501 478.5,245.501 478,323.5C 456.5,304 435,284.5 413.5,265C 403.5,259 393.5,259 383.5,265C 361.32,287.347 338.986,309.514 316.5,331.5C 272.688,279.187 228.688,227.02 184.5,175C 169.701,167.494 157.201,170.327 147,183.5C 109.237,228.02 71.2368,272.353 33,316.5C 32.5,240.834 32.3333,165.167 32.5,89.5 Z"/></g>
<g><path style="opacity:0.974" fill="#000000" d="M 375.5,129.5 C 401.814,126.365 419.648,137.032 429,161.5C 434.166,187.67 424.666,206.17 400.5,217C 372.003,223.837 352.503,213.67 342,186.5C 337.275,157.926 348.442,138.926 375.5,129.5 Z"/></g>
</svg>
