<svg xmlns="http://www.w3.org/2000/svg" version="1.1" xmlns:xlink="http://www.w3.org/1999/xlink" xmlns:svgjs="http://svgjs.dev/svgjs" width="1500" height="1500" viewBox="0 0 1500 1500"><rect width="1500" height="1500" fill="#ffffff"></rect><g transform="matrix(0.6666666666666666,0,0,0.6666666666666666,249.39393939393943,692.52486064085)"><svg viewBox="0 0 396 46" data-background-color="#ffffff" preserveAspectRatio="xMidYMid meet" height="174" width="1500" xmlns="http://www.w3.org/2000/svg" xmlns:xlink="http://www.w3.org/1999/xlink"><g id="tight-bounds" transform="matrix(1,0,0,1,0.2400000000000091,-0.2081343920611971)"><svg viewBox="0 0 395.52 46.416268784122366" height="46.416268784122366" width="395.52"><g><svg viewBox="0 0 497.1997276905863 58.34889815907844" height="46.416268784122366" width="395.52"><g><rect width="3.8074991693549882" height="50.664745145364776" x="87.90495320878371" y="3.8420765068568308" fill="#000000" opacity="1" stroke-width="0" stroke="transparent" fill-opacity="1" class="rect-qz-0" data-fill-palette-color="primary" rx="1%" id="qz-0" data-palette-color="#d9caa1"></rect></g><g transform="matrix(1,0,0,1,101.6797276905863,8.064138602303895)"><svg viewBox="0 0 395.52 42.22062095447065" height="42.22062095447065" width="395.52"><g id="textblocktransform"><svg viewBox="0 0 395.52 42.22062095447065" height="42.22062095447065" width="395.52" id="textblock"><g><svg viewBox="0 0 395.52 42.22062095447065" height="42.22062095447065" width="395.52"><g transform="matrix(1,0,0,1,0,0)"><svg width="395.52" viewBox="-1.2 -38.1 455.7 48.650000000000006" height="42.22062095447065" data-palette-color="#d9caa1"><path d="M4.4-33.1L3.65-36.4 9.05-36.4 9.05-3.05Q9.05-0.45 8.68 1.9 8.3 4.25 7.28 6.08 6.25 7.9 4.38 9.08 2.5 10.25-0.55 10.55L-0.55 10.55-1.2 7.6Q0.75 7.3 1.9 6.25 3.05 5.2 3.58 3.7 4.1 2.2 4.25 0.5 4.4-1.2 4.4-2.75L4.4-2.75 4.4-33.1ZM17.1-36.4L23.85-36.4 32.7-12.75Q33.15-11.5 33.57-10.3 34-9.1 34.45-7.55L34.45-7.55Q34.85-9.05 35.25-10.23 35.65-11.4 36.1-12.6L36.1-12.6 44.9-36.4 50.95-36.4 50.95 0 46.35 0 46.35-26.35Q46.35-27.25 46.4-28.1 46.45-28.95 46.5-30L46.5-30Q46.2-29.2 45.85-28.35 45.5-27.5 45.2-26.65L45.2-26.65 35.4 0.05 32.6 0.05 22.7-26.9Q22.45-27.65 22.1-28.48 21.75-29.3 21.5-30L21.5-30Q21.6-29.05 21.62-28.25 21.65-27.45 21.65-26.6L21.65-26.6 21.65 0 17.85 0 17.85-33.1 17.1-36.4ZM68.85-36.4L73.4-36.4 86 0 80.85 0 76.65-12.5 64.65-12.5 60.4 0 56.2 0 68.85-36.4ZM75.5-15.9L70.7-30.3 65.8-15.9 75.5-15.9ZM90.49-36.4L90.49-36.4 95.84-36.4 95.84 0 91.19 0 91.19-33.1Q91.19-33.15 91.02-33.9 90.84-34.65 90.69-35.45 90.54-36.25 90.49-36.4ZM113.79-11.2L113.79-14.95 125.34-14.95 125.34-11.2 113.79-11.2ZM143.28-33.1L142.53-36.4 147.93-36.4 147.93-3.05Q147.93-0.45 147.56 1.9 147.18 4.25 146.16 6.08 145.13 7.9 143.26 9.08 141.38 10.25 138.33 10.55L138.33 10.55 137.68 7.6Q139.63 7.3 140.78 6.25 141.93 5.2 142.46 3.7 142.98 2.2 143.13 0.5 143.28-1.2 143.28-2.75L143.28-2.75 143.28-33.1ZM155.63-24.85L160.43-24.85 160.43-9.55Q160.43-8.1 160.68-6.58 160.93-5.05 161.81-4.05 162.68-3.05 164.58-3.05L164.58-3.05Q166.43-3.05 167.96-3.85 169.48-4.65 170.43-6.08 171.38-7.5 171.38-9.4L171.38-9.4 171.38-21.9Q171.38-21.95 171.23-22.63 171.08-23.3 170.93-24.03 170.78-24.75 170.73-24.85L170.73-24.85 175.53-24.85 175.53-4.85Q175.53-3.9 175.86-3.45 176.18-3 176.88-3L176.88-3Q177.58-3 178.78-3.45L178.78-3.45 179.68-0.75Q178.68-0.2 177.46 0.13 176.23 0.45 175.13 0.45L175.13 0.45Q173.83 0.45 172.83-0.3 171.83-1.05 171.53-2.95L171.53-2.95Q170.08-1.45 168.06-0.4 166.03 0.65 163.88 0.65L163.88 0.65Q161.13 0.65 159.46-0.5 157.78-1.65 157.03-3.63 156.28-5.6 156.28-8.2L156.28-8.2 156.28-21.9 155.63-24.85ZM182.28-24.65L186.83-25.25Q187.18-24.4 187.43-23.5 187.68-22.6 187.78-21.7L187.78-21.7Q189.28-23.2 191.33-24.33 193.38-25.45 195.53-25.45L195.53-25.45Q198.28-25.45 199.95-24.3 201.63-23.15 202.38-21.18 203.13-19.2 203.13-16.6L203.13-16.6 203.13 0 199.03 0 199.03-15.25Q199.03-16.8 198.8-18.3 198.58-19.8 197.7-20.78 196.83-21.75 194.83-21.75L194.83-21.75Q193.63-21.75 192.38-21.28 191.13-20.8 190.03-20.05 188.93-19.3 188.03-18.45L188.03-18.45 188.03 0 183.93 0 183.93-17.6Q183.93-18.6 183.78-19.93 183.63-21.25 183.28-22.53 182.93-23.8 182.28-24.65L182.28-24.65ZM214.08-31.95L217.13-31.95Q216.78-30.25 216.5-28.43 216.23-26.6 216.13-24.85L216.13-24.85 222.63-24.85 221.78-21.7 216.13-21.7 216.13-5.8Q216.13-4.85 216.35-4.13 216.58-3.4 217.15-3.03 217.73-2.65 218.78-2.65L218.78-2.65Q219.58-2.65 220.38-2.8 221.18-2.95 221.93-3.15L221.93-3.15 222.63-0.35Q221.38 0 220.25 0.28 219.13 0.55 217.68 0.55L217.68 0.55Q214.48 0.55 213.23-1.15 211.98-2.85 211.98-5.9L211.98-5.9 211.98-21.7 208.28-21.7 208.28-24.2Q210.28-24.25 211.43-25.53 212.58-26.8 213.18-28.6 213.78-30.4 214.08-31.95L214.08-31.95ZM236.27-25.45L236.27-25.45Q240.22-25.45 242.22-23.3 244.22-21.15 244.22-17.25L244.22-17.25 244.22-4.8Q244.22-3.75 244.62-3.38 245.02-3 245.57-3L245.57-3Q246.02-3 246.52-3.13 247.02-3.25 247.47-3.45L247.47-3.45 248.37-0.75Q247.57-0.3 246.35 0.08 245.12 0.45 243.82 0.45L243.82 0.45Q242.52 0.45 241.47-0.28 240.42-1 240.17-2.95L240.17-2.95Q238.72-1.4 236.77-0.43 234.82 0.55 232.67 0.55L232.67 0.55Q229.72 0.55 227.77-1.2 225.82-2.95 225.82-6L225.82-6Q225.82-8.85 227.2-10.55 228.57-12.25 230.77-13.1 232.97-13.95 235.45-14.25 237.92-14.55 240.07-14.55L240.07-14.55 240.07-17.2Q240.07-19.3 239.22-20.75 238.37-22.2 235.92-22.2L235.92-22.2Q234.02-22.2 232.27-21.45 230.52-20.7 228.77-19.25L228.77-19.25 226.72-22.2Q228.77-23.85 231.22-24.65 233.67-25.45 236.27-25.45ZM240.07-9.7L240.07-11.3Q238.72-11.3 237.02-11.18 235.32-11.05 233.72-10.58 232.12-10.1 231.1-9.05 230.07-8 230.07-6.15L230.07-6.15Q230.07-4.5 231.2-3.73 232.32-2.95 234.02-2.95L234.02-2.95Q235.82-2.95 237.17-3.95 238.52-4.95 239.3-6.5 240.07-8.05 240.07-9.7L240.07-9.7ZM260.52-25.45L260.52-25.45Q262.22-25.45 263.9-25.03 265.57-24.6 266.97-23.7L266.97-23.7 265.52-20.5Q264.42-21.4 263.07-21.85 261.72-22.3 260.42-22.3L260.42-22.3Q258.57-22.3 257.2-21.45 255.82-20.6 255.82-18.9L255.82-18.9Q255.82-17.05 257.05-16.15 258.27-15.25 259.97-14.45L259.97-14.45Q261.22-13.85 262.5-13.23 263.77-12.6 264.85-11.73 265.92-10.85 266.6-9.63 267.27-8.4 267.27-6.6L267.27-6.6Q267.27-4.1 266.05-2.48 264.82-0.85 262.85-0.1 260.87 0.65 258.57 0.65L258.57 0.65Q256.57 0.65 254.57 0.1 252.57-0.45 250.87-1.45L250.87-1.45 252.62-4.5Q253.82-3.6 255.32-3.05 256.82-2.5 258.22-2.5L258.22-2.5Q260.12-2.5 261.55-3.4 262.97-4.3 262.97-6.1L262.97-6.1Q262.97-7.35 262.2-8.18 261.42-9 260.22-9.65 259.02-10.3 257.72-10.9L257.72-10.9Q256.22-11.65 254.8-12.53 253.37-13.4 252.47-14.75 251.57-16.1 251.57-18.2L251.57-18.2Q251.57-20.6 252.85-22.2 254.12-23.8 256.17-24.63 258.22-25.45 260.52-25.45ZM285.02-36.4L291.77-36.4 300.62-12.75Q301.07-11.5 301.49-10.3 301.92-9.1 302.37-7.55L302.37-7.55Q302.77-9.05 303.17-10.23 303.57-11.4 304.02-12.6L304.02-12.6 312.82-36.4 318.87-36.4 318.87 0 314.27 0 314.27-26.35Q314.27-27.25 314.32-28.1 314.37-28.95 314.42-30L314.42-30Q314.12-29.2 313.77-28.35 313.42-27.5 313.12-26.65L313.12-26.65 303.32 0.05 300.52 0.05 290.62-26.9Q290.37-27.65 290.02-28.48 289.67-29.3 289.42-30L289.42-30Q289.52-29.05 289.54-28.25 289.57-27.45 289.57-26.6L289.57-26.6 289.57 0 285.77 0 285.77-33.1 285.02-36.4ZM336.71-25.45L336.71-25.45Q339.71-25.45 341.76-24.23 343.81-23 344.84-20.83 345.86-18.65 345.86-15.75L345.86-15.75Q345.86-15.05 345.79-14.33 345.71-13.6 345.61-12.8L345.61-12.8 329.81-12.8Q329.81-8.05 331.91-5.45 334.01-2.85 337.51-2.85L337.51-2.85Q338.96-2.85 340.54-3.3 342.11-3.75 343.81-4.65L343.81-4.65 345.36-2.15Q343.61-0.75 341.41-0.05 339.21 0.65 336.96 0.65L336.96 0.65Q333.06 0.65 330.49-1.2 327.91-3.05 326.66-6 325.41-8.95 325.41-12.15L325.41-12.15Q325.41-14.65 326.11-17 326.81-19.35 328.24-21.28 329.66-23.2 331.76-24.33 333.86-25.45 336.71-25.45ZM336.31-22.3L336.31-22.3Q334.61-22.3 333.31-21.35 332.01-20.4 331.21-18.93 330.41-17.45 330.11-15.9L330.11-15.9 341.51-15.9Q341.56-18 340.94-19.43 340.31-20.85 339.14-21.58 337.96-22.3 336.31-22.3ZM361.26-25.4L361.26-25.4Q362.96-25.4 364.66-24.85 366.36-24.3 367.61-23.15L367.61-23.15Q367.56-23.85 367.54-24.53 367.51-25.2 367.51-25.85L367.51-25.85 367.51-35.15 366.81-38.1 371.61-38.1 371.61-7.15Q371.61-6.1 371.76-4.8 371.91-3.5 372.26-2.27 372.61-1.05 373.16-0.1L373.16-0.1 368.76 0.45Q368.41-0.4 368.16-1.25 367.91-2.1 367.81-2.95L367.81-2.95Q366.51-1.25 364.56-0.3 362.61 0.65 360.46 0.65L360.46 0.65Q357.86 0.65 355.91-0.45 353.96-1.55 352.69-3.43 351.41-5.3 350.79-7.58 350.16-9.85 350.16-12.2L350.16-12.2Q350.16-15.6 351.39-18.63 352.61-21.65 355.06-23.53 357.51-25.4 361.26-25.4ZM361.36-22L361.36-22Q359.41-22 358.09-21.15 356.76-20.3 355.99-18.9 355.21-17.5 354.89-15.83 354.56-14.15 354.56-12.5L354.56-12.5Q354.56-10.8 354.94-9.13 355.31-7.45 356.14-6.05 356.96-4.65 358.34-3.83 359.71-3 361.71-3L361.71-3Q363.46-3 364.94-4.03 366.41-5.05 367.51-6.3L367.51-6.3 367.51-14.7Q367.51-16.7 366.89-18.35 366.26-20 364.91-21 363.56-22 361.36-22ZM385.06-33.2L385.06-33.2Q385.06-31.95 384.18-31.05 383.31-30.15 382.01-30.15L382.01-30.15Q380.76-30.15 379.88-31.05 379.01-31.95 379.01-33.2L379.01-33.2Q379.01-34.45 379.88-35.35 380.76-36.25 382.01-36.25L382.01-36.25Q383.26-36.25 384.16-35.35 385.06-34.45 385.06-33.2ZM379.41-24.85L384.16-24.85 384.16 0 380.01 0 380.01-21.9 379.41-24.85ZM402.06-25.45L402.06-25.45Q403.96-25.45 405.88-24.83 407.81-24.2 409.66-22.9L409.66-22.9 407.41-20Q406-21.15 404.66-21.68 403.31-22.2 402.06-22.2L402.06-22.2Q400.56-22.2 399.28-21.5 398-20.8 397.03-19.53 396.06-18.25 395.53-16.45 395-14.65 395-12.45L395-12.45Q395-7.75 397.13-5.25 399.25-2.75 402.5-2.75L402.5-2.75Q403.96-2.75 405.33-3.2 406.71-3.65 408.21-4.5L408.21-4.5 409.56-1.85Q407.56-0.6 405.71 0.03 403.86 0.65 401.56 0.65L401.56 0.65Q398.36 0.65 395.88-0.98 393.41-2.6 391.98-5.6 390.56-8.6 390.56-12.65L390.56-12.65Q390.56-16.55 392.13-19.43 393.71-22.3 396.33-23.88 398.96-25.45 402.06-25.45ZM423.5-25.45L423.5-25.45Q427.45-25.45 429.45-23.3 431.45-21.15 431.45-17.25L431.45-17.25 431.45-4.8Q431.45-3.75 431.85-3.38 432.25-3 432.8-3L432.8-3Q433.25-3 433.75-3.13 434.25-3.25 434.7-3.45L434.7-3.45 435.6-0.75Q434.8-0.3 433.58 0.08 432.35 0.45 431.05 0.45L431.05 0.45Q429.75 0.45 428.7-0.28 427.65-1 427.4-2.95L427.4-2.95Q425.95-1.4 424-0.43 422.05 0.55 419.9 0.55L419.9 0.55Q416.95 0.55 415-1.2 413.05-2.95 413.05-6L413.05-6Q413.05-8.85 414.43-10.55 415.8-12.25 418-13.1 420.2-13.95 422.68-14.25 425.15-14.55 427.3-14.55L427.3-14.55 427.3-17.2Q427.3-19.3 426.45-20.75 425.6-22.2 423.15-22.2L423.15-22.2Q421.25-22.2 419.5-21.45 417.75-20.7 416-19.25L416-19.25 413.95-22.2Q416-23.85 418.45-24.65 420.9-25.45 423.5-25.45ZM427.3-9.7L427.3-11.3Q425.95-11.3 424.25-11.18 422.55-11.05 420.95-10.58 419.35-10.1 418.33-9.05 417.3-8 417.3-6.15L417.3-6.15Q417.3-4.5 418.43-3.73 419.55-2.95 421.25-2.95L421.25-2.95Q423.05-2.95 424.4-3.95 425.75-4.95 426.53-6.5 427.3-8.05 427.3-9.7L427.3-9.7ZM447.75-25.45L447.75-25.45Q449.45-25.45 451.13-25.03 452.8-24.6 454.2-23.7L454.2-23.7 452.75-20.5Q451.65-21.4 450.3-21.85 448.95-22.3 447.65-22.3L447.65-22.3Q445.8-22.3 444.43-21.45 443.05-20.6 443.05-18.9L443.05-18.9Q443.05-17.05 444.28-16.15 445.5-15.25 447.2-14.45L447.2-14.45Q448.45-13.85 449.73-13.23 451-12.6 452.07-11.73 453.15-10.85 453.82-9.63 454.5-8.4 454.5-6.6L454.5-6.6Q454.5-4.1 453.28-2.48 452.05-0.85 450.07-0.1 448.1 0.65 445.8 0.65L445.8 0.65Q443.8 0.65 441.8 0.1 439.8-0.45 438.1-1.45L438.1-1.45 439.85-4.5Q441.05-3.6 442.55-3.05 444.05-2.5 445.45-2.5L445.45-2.5Q447.35-2.5 448.78-3.4 450.2-4.3 450.2-6.1L450.2-6.1Q450.2-7.35 449.43-8.18 448.65-9 447.45-9.65 446.25-10.3 444.95-10.9L444.95-10.9Q443.45-11.65 442.03-12.53 440.6-13.4 439.7-14.75 438.8-16.1 438.8-18.2L438.8-18.2Q438.8-20.6 440.07-22.2 441.35-23.8 443.4-24.63 445.45-25.45 447.75-25.45Z" opacity="1" transform="matrix(1,0,0,1,0,0)" fill="#000000" class="wordmark-text-0" data-fill-palette-color="primary" id="text-0"></path></svg></g></svg></g></svg></g></svg></g><g><svg viewBox="0 0 77.9376778963361 58.34889815907844" height="58.34889815907844" width="77.9376778963361"><g><svg xmlns="http://www.w3.org/2000/svg" xmlns:xlink="http://www.w3.org/1999/xlink" version="1.1" x="0" y="0" viewBox="0 7.688492063492063 50.404 37.735507936507936" enable-background="new 0 0 50.4 50.4" xml:space="preserve" width="77.9376778963361" height="58.34889815907844" class="icon-icon-0" data-fill-palette-color="accent" id="icon-0"><path d="M50.404 10.876h-8.751V7.75H31.531v3.126h-8.608v34.548h0.052l11.569-0.002v-6.31h4.258v6.31l11.597-0.001L50.404 10.876zM31.526 33.771h-4.243v-4.242h4.243V33.771zM31.526 26.737h-4.243v-4.243h4.243V26.737zM31.526 19.702h-4.243v-4.243h4.243V19.702zM38.785 29.529v4.243h-4.242v-4.243-0.003h4.242V29.529zM38.785 26.739h-4.242v-4.245h4.242V26.739zM38.785 19.702h-4.242v-4.243h4.242V19.702zM46.044 33.771H41.8v-4.242h4.244V33.771zM46.044 26.737H41.8v-4.243h4.244V26.737zM46.044 19.702H41.8v-4.243h4.244V19.702z" fill="#000000" data-fill-palette-color="accent"></path><polygon points="19.898,14.616 13.032,14.616 13.032,7.75 6.866,7.75 6.866,14.616 0,14.616 0,20.778 6.866,20.778 6.866,27.647   13.032,27.647 13.032,20.778 19.898,20.778 " fill="#000000" data-fill-palette-color="accent"></polygon></svg></g></svg></g></svg></g><defs></defs></svg><rect width="395.52" height="46.416268784122366" fill="none" stroke="none" visibility="hidden"></rect></g></svg></g></svg>