<?xml version="1.0" encoding="UTF-8"?>
<!DOCTYPE svg PUBLIC "-//W3C//DTD SVG 1.1//EN" "http://www.w3.org/Graphics/SVG/1.1/DTD/svg11.dtd">
<svg xmlns="http://www.w3.org/2000/svg" version="1.1" width="700px" height="394px" style="shape-rendering:geometricPrecision; text-rendering:geometricPrecision; image-rendering:optimizeQuality; fill-rule:evenodd; clip-rule:evenodd" xmlns:xlink="http://www.w3.org/1999/xlink">
<g><path style="opacity:1" fill="#fefefe" d="M -0.5,-0.5 C 79.1667,-0.5 158.833,-0.5 238.5,-0.5C 238.5,-0.166667 238.5,0.166667 238.5,0.5C 238.667,61.5009 238.5,122.501 238,183.5C 214.239,184.328 190.406,184.828 166.5,185C 165.29,186.039 164.29,187.206 163.5,188.5C 162.542,188.953 161.708,189.619 161,190.5C 160.168,240.335 160.335,290.002 161.5,339.5C 161.229,341.38 161.896,342.713 163.5,343.5C 164.833,344.833 166.167,346.167 167.5,347.5C 190.661,348.498 213.994,348.831 237.5,348.5C 237.5,363.5 237.5,378.5 237.5,393.5C 158.167,393.5 78.8333,393.5 -0.5,393.5C -0.5,262.167 -0.5,130.833 -0.5,-0.5 Z"/></g>
<g><path style="opacity:1" fill="#fefefe" d="M 238.5,0.5 C 238.5,0.166667 238.5,-0.166667 238.5,-0.5C 392.167,-0.5 545.833,-0.5 699.5,-0.5C 699.5,130.833 699.5,262.167 699.5,393.5C 646.167,393.5 592.833,393.5 539.5,393.5C 539.5,290.167 539.5,186.833 539.5,83.5C 537.435,83.4828 535.435,83.1495 533.5,82.5C 531.5,80.5 529.5,78.5 527.5,76.5C 526.167,74.5 524.5,72.8333 522.5,71.5C 518.5,68.1667 514.833,64.5 511.5,60.5C 510.167,58.5 508.5,56.8333 506.5,55.5C 506.027,54.0937 505.027,53.427 503.5,53.5C 488.055,38.4071 472.055,23.7404 455.5,9.5C 454.167,6.16667 451.833,3.83333 448.5,2.5C 448.389,1.88258 448.056,1.38258 447.5,1C 378.167,0.500004 308.834,0.333337 239.5,0.5C 239.167,0.5 238.833,0.5 238.5,0.5 Z"/></g>
<g><path style="opacity:1" fill="#d35450" d="M 239.5,1.5 C 239.5,1.16667 239.5,0.833333 239.5,0.5C 308.834,0.333337 378.167,0.500004 447.5,1C 448.056,1.38258 448.389,1.88258 448.5,2.5C 448.833,3.16667 449.167,3.83333 449.5,4.5C 447.91,4.37178 446.577,3.70512 445.5,2.5C 376.837,1.50003 308.17,1.1667 239.5,1.5 Z"/></g>
<g><path style="opacity:1" fill="#e5a299" d="M 448.5,2.5 C 451.833,3.83333 454.167,6.16667 455.5,9.5C 453.544,7.8861 451.544,6.21943 449.5,4.5C 449.167,3.83333 448.833,3.16667 448.5,2.5 Z"/></g>
<g><path style="opacity:1" fill="#d56160" d="M 238.5,0.5 C 238.833,0.5 239.167,0.5 239.5,0.5C 239.5,0.833333 239.5,1.16667 239.5,1.5C 239.667,62.5009 239.5,123.501 239,184.5C 215.239,185.328 191.406,185.828 167.5,186C 166.529,187.481 165.196,188.315 163.5,188.5C 164.29,187.206 165.29,186.039 166.5,185C 190.406,184.828 214.239,184.328 238,183.5C 238.5,122.501 238.667,61.5009 238.5,0.5 Z"/></g>
<g><path style="opacity:1" fill="#db4538" d="M 239.5,1.5 C 308.17,1.1667 376.837,1.50003 445.5,2.5C 446.577,3.70512 447.91,4.37178 449.5,4.5C 451.544,6.21943 453.544,7.8861 455.5,9.5C 472.055,23.7404 488.055,38.4071 503.5,53.5C 503.973,54.9063 504.973,55.573 506.5,55.5C 507.167,58.1667 508.833,59.8333 511.5,60.5C 514.833,64.5 518.5,68.1667 522.5,71.5C 523.167,74.1667 524.833,75.8333 527.5,76.5C 529.5,78.5 531.5,80.5 533.5,82.5C 533.833,83.5 534.5,84.1667 535.5,84.5C 535.783,85.2891 536.283,85.9558 537,86.5C 537.5,188.499 537.667,290.499 537.5,392.5C 437.763,392.831 338.096,392.498 238.5,391.5C 238.5,376.833 238.5,362.167 238.5,347.5C 214.833,347.5 191.167,347.5 167.5,347.5C 166.167,346.167 164.833,344.833 163.5,343.5C 162.509,292.875 162.176,242.209 162.5,191.5C 163.11,190.609 163.443,189.609 163.5,188.5C 165.196,188.315 166.529,187.481 167.5,186C 191.406,185.828 215.239,185.328 239,184.5C 239.5,123.501 239.667,62.5009 239.5,1.5 Z"/></g>
<g><path style="opacity:1" fill="#fefefe" d="M 438.5,9.5 C 438.5,37.8333 438.5,66.1667 438.5,94.5C 466.662,95.498 494.995,95.8313 523.5,95.5C 523.5,190.5 523.5,285.5 523.5,380.5C 432.833,380.5 342.167,380.5 251.5,380.5C 250.506,370.013 250.172,359.346 250.5,348.5C 311.501,348.667 372.501,348.5 433.5,348C 435.119,347.764 436.119,346.931 436.5,345.5C 436.973,344.094 437.973,343.427 439.5,343.5C 440.268,342.737 440.768,341.737 441,340.5C 441.833,289.83 441.667,239.163 440.5,188.5C 439.06,187.048 437.394,186.048 435.5,185.5C 434.391,185.443 433.391,185.11 432.5,184.5C 372.002,183.501 311.336,183.168 250.5,183.5C 250.5,125.5 250.5,67.5 250.5,9.5C 313.167,9.5 375.833,9.5 438.5,9.5 Z"/></g>
<g><path style="opacity:1" fill="#ecbbb1" d="M 438.5,9.5 C 375.833,9.5 313.167,9.5 250.5,9.5C 250.5,67.5 250.5,125.5 250.5,183.5C 311.336,183.168 372.002,183.501 432.5,184.5C 371.5,184.5 310.5,184.5 249.5,184.5C 249.5,125.833 249.5,67.1667 249.5,8.5C 312.669,8.16756 375.669,8.50089 438.5,9.5 Z"/></g>
<g><path style="opacity:1" fill="#e7a29a" d="M 503.5,53.5 C 505.027,53.427 506.027,54.0937 506.5,55.5C 504.973,55.573 503.973,54.9063 503.5,53.5 Z"/></g>
<g><path style="opacity:1" fill="#e39490" d="M 506.5,55.5 C 508.5,56.8333 510.167,58.5 511.5,60.5C 508.833,59.8333 507.167,58.1667 506.5,55.5 Z"/></g>
<g><path style="opacity:1" fill="#d9807a" d="M 522.5,71.5 C 524.5,72.8333 526.167,74.5 527.5,76.5C 524.833,75.8333 523.167,74.1667 522.5,71.5 Z"/></g>
<g><path style="opacity:1" fill="#d68780" d="M 535.5,84.5 C 536.496,84.4142 537.329,84.7476 538,85.5C 538.5,187.833 538.667,290.166 538.5,392.5C 538.167,392.5 537.833,392.5 537.5,392.5C 537.667,290.499 537.5,188.499 537,86.5C 536.283,85.9558 535.783,85.2891 535.5,84.5 Z"/></g>
<g><path style="opacity:1" fill="#f8f5ea" d="M 533.5,82.5 C 535.435,83.1495 537.435,83.4828 539.5,83.5C 539.5,186.833 539.5,290.167 539.5,393.5C 539.167,393.5 538.833,393.5 538.5,393.5C 538.5,393.167 538.5,392.833 538.5,392.5C 538.667,290.166 538.5,187.833 538,85.5C 537.329,84.7476 536.496,84.4142 535.5,84.5C 534.5,84.1667 533.833,83.5 533.5,82.5 Z"/></g>
<g><path style="opacity:1" fill="#d46967" d="M 438.5,9.5 C 439.498,37.3284 439.831,65.3284 439.5,93.5C 467.833,93.5 496.167,93.5 524.5,93.5C 524.5,93.8333 524.5,94.1667 524.5,94.5C 495.833,94.5 467.167,94.5 438.5,94.5C 438.5,66.1667 438.5,37.8333 438.5,9.5 Z"/></g>
<g><path style="opacity:1" fill="#f5d4ce" d="M 438.5,94.5 C 467.167,94.5 495.833,94.5 524.5,94.5C 524.5,190.167 524.5,285.833 524.5,381.5C 433.5,381.5 342.5,381.5 251.5,381.5C 251.5,381.167 251.5,380.833 251.5,380.5C 342.167,380.5 432.833,380.5 523.5,380.5C 523.5,285.5 523.5,190.5 523.5,95.5C 494.995,95.8313 466.662,95.498 438.5,94.5 Z"/></g>
<g><path style="opacity:1" fill="#d55048" d="M 524.5,93.5 C 525.833,140.995 526.5,188.829 526.5,237C 526.333,284.833 526.167,332.667 526,380.5C 525.617,381.056 525.117,381.389 524.5,381.5C 524.5,285.833 524.5,190.167 524.5,94.5C 524.5,94.1667 524.5,93.8333 524.5,93.5 Z"/></g>
<g><path style="opacity:1" fill="#ca5547" d="M 162.5,191.5 C 162.176,242.209 162.509,292.875 163.5,343.5C 161.896,342.713 161.229,341.38 161.5,339.5C 161.168,289.997 161.501,240.664 162.5,191.5 Z"/></g>
<g><path style="opacity:1" fill="#edc9bd" d="M 435.5,185.5 C 437.394,186.048 439.06,187.048 440.5,188.5C 441.667,239.163 441.833,289.83 441,340.5C 440.768,341.737 440.268,342.737 439.5,343.5C 440.648,292.855 440.815,242.189 440,191.5C 438.668,189.34 437.168,187.34 435.5,185.5 Z"/></g>
<g><path style="opacity:1" fill="#e8aeaa" d="M 163.5,188.5 C 163.443,189.609 163.11,190.609 162.5,191.5C 161.501,240.664 161.168,289.997 161.5,339.5C 160.335,290.002 160.168,240.335 161,190.5C 161.708,189.619 162.542,188.953 163.5,188.5 Z"/></g>
<g><path style="opacity:1" fill="#d68e87" d="M 358.5,218.5 C 358.5,218.167 358.5,217.833 358.5,217.5C 379.167,217.5 399.833,217.5 420.5,217.5C 420.819,222.363 420.486,227.03 419.5,231.5C 419.5,227.167 419.5,222.833 419.5,218.5C 399.167,218.5 378.833,218.5 358.5,218.5 Z"/></g>
<g><path style="opacity:1" fill="#fdfcfc" d="M 241.5,220.5 C 243.745,221.096 245.745,222.096 247.5,223.5C 248.08,225.749 249.413,227.415 251.5,228.5C 251.427,230.027 252.094,231.027 253.5,231.5C 254.321,239.527 254.321,247.527 253.5,255.5C 250.852,261.146 246.852,265.479 241.5,268.5C 239.62,268.229 238.287,268.896 237.5,270.5C 233.081,271.972 228.414,272.638 223.5,272.5C 217.642,272.178 211.975,272.511 206.5,273.5C 205.506,283.319 205.173,293.319 205.5,303.5C 200.167,303.5 194.833,303.5 189.5,303.5C 189.5,275.5 189.5,247.5 189.5,219.5C 206.861,219.223 224.195,219.556 241.5,220.5 Z"/></g>
<g><path style="opacity:1" fill="#fcfaf9" d="M 268.5,218.5 C 285.503,218.333 302.503,218.5 319.5,219C 329.678,222.679 336.678,229.512 340.5,239.5C 340.41,242.152 341.076,244.485 342.5,246.5C 342.5,246.833 342.5,247.167 342.5,247.5C 342.578,257.185 342.245,266.852 341.5,276.5C 341.052,282.188 339.052,287.188 335.5,291.5C 333.738,292.262 332.738,293.596 332.5,295.5C 331.167,296.167 330.167,297.167 329.5,298.5C 326.088,299.075 323.088,300.408 320.5,302.5C 319.833,302.5 319.5,302.833 319.5,303.5C 317.833,303.5 316.167,303.5 314.5,303.5C 299.167,303.5 283.833,303.5 268.5,303.5C 268.5,275.167 268.5,246.833 268.5,218.5 Z"/></g>
<g><path style="opacity:1" fill="#fdfbfa" d="M 358.5,218.5 C 378.833,218.5 399.167,218.5 419.5,218.5C 419.5,222.833 419.5,227.167 419.5,231.5C 405.167,231.5 390.833,231.5 376.5,231.5C 376.5,238.5 376.5,245.5 376.5,252.5C 388.5,252.5 400.5,252.5 412.5,252.5C 412.5,257.5 412.5,262.5 412.5,267.5C 400.5,267.5 388.5,267.5 376.5,267.5C 376.813,279.913 376.479,292.247 375.5,304.5C 369.907,304.807 364.407,304.473 359,303.5C 358.5,275.169 358.333,246.835 358.5,218.5 Z"/></g>
<g><path style="opacity:1" fill="#d4807a" d="M 234.5,218.5 C 219.167,218.5 203.833,218.5 188.5,218.5C 188.5,247.167 188.5,275.833 188.5,304.5C 187.502,276.005 187.169,247.338 187.5,218.5C 203.167,217.167 218.833,217.167 234.5,218.5 Z"/></g>
<g><path style="opacity:1" fill="#f9e8df" d="M 234.5,218.5 C 237.228,218.171 239.562,218.837 241.5,220.5C 224.195,219.556 206.861,219.223 189.5,219.5C 189.5,247.5 189.5,275.5 189.5,303.5C 194.833,303.5 200.167,303.5 205.5,303.5C 205.173,293.319 205.506,283.319 206.5,273.5C 206.5,283.833 206.5,294.167 206.5,304.5C 206.167,304.5 205.833,304.5 205.5,304.5C 199.833,304.5 194.167,304.5 188.5,304.5C 188.5,275.833 188.5,247.167 188.5,218.5C 203.833,218.5 219.167,218.5 234.5,218.5 Z"/></g>
<g><path style="opacity:1" fill="#e5b8b0" d="M 268.5,218.5 C 268.5,246.833 268.5,275.167 268.5,303.5C 283.833,303.5 299.167,303.5 314.5,303.5C 299.009,304.496 283.342,304.83 267.5,304.5C 267.169,275.662 267.502,246.995 268.5,218.5 Z"/></g>
<g><path style="opacity:1" fill="#e2a394" d="M 247.5,223.5 C 249.587,224.585 250.92,226.251 251.5,228.5C 249.413,227.415 248.08,225.749 247.5,223.5 Z"/></g>
<g><path style="opacity:1" fill="#e09c93" d="M 251.5,228.5 C 252.906,228.973 253.573,229.973 253.5,231.5C 252.094,231.027 251.427,230.027 251.5,228.5 Z"/></g>
<g><path style="opacity:1" fill="#d44a3f" d="M 187.5,218.5 C 187.169,247.338 187.502,276.005 188.5,304.5C 194.167,304.5 199.833,304.5 205.5,304.5C 198.81,305.218 191.977,305.885 185,306.5C 184.5,306.167 184,305.833 183.5,305.5C 184.242,304.713 185.075,304.047 186,303.5C 186.168,274.997 186.668,246.664 187.5,218.5 Z"/></g>
<g><path style="opacity:1" fill="#cf6763" d="M 358.5,217.5 C 358.5,217.833 358.5,218.167 358.5,218.5C 358.333,246.835 358.5,275.169 359,303.5C 364.407,304.473 369.907,304.807 375.5,304.5C 376.167,304.5 376.833,304.5 377.5,304.5C 371.021,305.491 364.354,305.824 357.5,305.5C 357.169,275.995 357.502,246.662 358.5,217.5 Z"/></g>
<g><path style="opacity:1" fill="#cf4b47" d="M 420.5,217.5 C 421.824,222.567 421.824,227.734 420.5,233C 406.171,233.5 391.837,233.667 377.5,233.5C 391.5,232.833 405.5,232.167 419.5,231.5C 420.486,227.03 420.819,222.363 420.5,217.5 Z"/></g>
<g><path style="opacity:1" fill="#de9e94" d="M 312.5,233.5 C 315.546,233.725 317.879,235.058 319.5,237.5C 316.9,236.532 314.566,235.199 312.5,233.5 Z"/></g>
<g><path style="opacity:1" fill="#dc4538" d="M 311.5,233.5 C 311.833,233.5 312.167,233.5 312.5,233.5C 314.566,235.199 316.9,236.532 319.5,237.5C 320.904,239.255 321.904,241.255 322.5,243.5C 322.259,245.898 322.926,247.898 324.5,249.5C 325.801,257.821 325.801,266.154 324.5,274.5C 322.972,278.142 321.306,281.809 319.5,285.5C 315.883,287.817 311.883,289.15 307.5,289.5C 301.5,289.5 295.5,289.5 289.5,289.5C 289.5,270.833 289.5,252.167 289.5,233.5C 296.833,233.5 304.167,233.5 311.5,233.5 Z"/></g>
<g><path style="opacity:1" fill="#db4639" d="M 231.5,234.5 C 235.852,236.011 237.852,239.178 237.5,244C 237.17,246.341 236.504,248.508 235.5,250.5C 233.224,252.351 230.891,254.018 228.5,255.5C 221.346,256.644 214.346,256.644 207.5,255.5C 207.5,248.167 207.5,240.833 207.5,233.5C 214.948,232.892 222.115,233.559 229,235.5C 229.671,234.748 230.504,234.414 231.5,234.5 Z"/></g>
<g><path style="opacity:1" fill="#d25c5b" d="M 226.5,232.5 C 228.553,232.402 230.22,233.069 231.5,234.5C 230.504,234.414 229.671,234.748 229,235.5C 222.115,233.559 214.948,232.892 207.5,233.5C 207.5,240.833 207.5,248.167 207.5,255.5C 206.508,248.018 206.175,240.352 206.5,232.5C 213.167,232.5 219.833,232.5 226.5,232.5 Z"/></g>
<g><path style="opacity:1" fill="#cc504d" d="M 311.5,233.5 C 304.167,233.5 296.833,233.5 289.5,233.5C 289.5,252.167 289.5,270.833 289.5,289.5C 295.5,289.5 301.5,289.5 307.5,289.5C 301.355,290.49 295.022,290.823 288.5,290.5C 288.5,271.167 288.5,251.833 288.5,232.5C 296.352,232.175 304.018,232.508 311.5,233.5 Z"/></g>
<g><path style="opacity:1" fill="#f3d6d3" d="M 253.5,231.5 C 254.167,231.5 254.5,231.833 254.5,232.5C 255.047,236.299 255.381,240.132 255.5,244C 255.714,248.133 255.048,251.966 253.5,255.5C 254.321,247.527 254.321,239.527 253.5,231.5 Z"/></g>
<g><path style="opacity:1" fill="#e59994" d="M 340.5,239.5 C 341.924,241.515 342.59,243.848 342.5,246.5C 341.076,244.485 340.41,242.152 340.5,239.5 Z"/></g>
<g><path style="opacity:1" fill="#d87971" d="M 322.5,243.5 C 324.074,245.102 324.741,247.102 324.5,249.5C 322.926,247.898 322.259,245.898 322.5,243.5 Z"/></g>
<g><path style="opacity:1" fill="#dc928b" d="M 419.5,231.5 C 405.5,232.167 391.5,232.833 377.5,233.5C 377.5,239.5 377.5,245.5 377.5,251.5C 389.5,251.5 401.5,251.5 413.5,251.5C 413.5,257.167 413.5,262.833 413.5,268.5C 401.5,268.5 389.5,268.5 377.5,268.5C 377.5,280.5 377.5,292.5 377.5,304.5C 376.833,304.5 376.167,304.5 375.5,304.5C 376.479,292.247 376.813,279.913 376.5,267.5C 388.5,267.5 400.5,267.5 412.5,267.5C 412.5,262.5 412.5,257.5 412.5,252.5C 400.5,252.5 388.5,252.5 376.5,252.5C 376.5,245.5 376.5,238.5 376.5,231.5C 390.833,231.5 405.167,231.5 419.5,231.5 Z"/></g>
<g><path style="opacity:1" fill="#d9867d" d="M 235.5,250.5 C 234.473,253.858 232.14,255.525 228.5,255.5C 230.891,254.018 233.224,252.351 235.5,250.5 Z"/></g>
<g><path style="opacity:1" fill="#db4c40" d="M 254.5,232.5 C 256.525,233.519 257.859,235.185 258.5,237.5C 257.833,242.833 257.167,248.167 256.5,253.5C 257.799,267.486 257.799,281.486 256.5,295.5C 255.833,286.833 255.167,278.167 254.5,269.5C 253.808,270.025 253.308,270.692 253,271.5C 252.359,269.187 251.026,267.52 249,266.5C 246.681,267.871 244.181,268.538 241.5,268.5C 246.852,265.479 250.852,261.146 253.5,255.5C 255.048,251.966 255.714,248.133 255.5,244C 255.381,240.132 255.047,236.299 254.5,232.5 Z"/></g>
<g><path style="opacity:1" fill="#eec5bf" d="M 226.5,232.5 C 219.833,232.5 213.167,232.5 206.5,232.5C 206.175,240.352 206.508,248.018 207.5,255.5C 214.346,256.644 221.346,256.644 228.5,255.5C 228.082,256.222 227.416,256.722 226.5,257C 219.586,257.811 212.752,257.645 206,256.5C 205.5,248.173 205.334,239.84 205.5,231.5C 212.687,231.175 219.687,231.509 226.5,232.5 Z"/></g>
<g><path style="opacity:1" fill="#f1d8d4" d="M 342.5,247.5 C 343.492,255.316 343.826,263.316 343.5,271.5C 342.833,273.167 342.167,274.833 341.5,276.5C 342.245,266.852 342.578,257.185 342.5,247.5 Z"/></g>
<g><path style="opacity:1" fill="#e2a69e" d="M 241.5,268.5 C 240.486,269.674 239.153,270.34 237.5,270.5C 238.287,268.896 239.62,268.229 241.5,268.5 Z"/></g>
<g><path style="opacity:1" fill="#d56f70" d="M 223.5,272.5 C 218.36,273.488 213.026,273.821 207.5,273.5C 207.828,284.014 207.494,294.347 206.5,304.5C 206.5,294.167 206.5,283.833 206.5,273.5C 211.975,272.511 217.642,272.178 223.5,272.5 Z"/></g>
<g><path style="opacity:1" fill="#f2d4d0" d="M 324.5,274.5 C 323.787,277.237 323.787,279.904 324.5,282.5C 322.879,283.695 321.213,284.695 319.5,285.5C 321.306,281.809 322.972,278.142 324.5,274.5 Z"/></g>
<g><path style="opacity:1" fill="#d5564d" d="M 343.5,271.5 C 343.243,278.629 341.409,285.296 338,291.5C 337.329,292.252 336.496,292.586 335.5,292.5C 335.5,292.167 335.5,291.833 335.5,291.5C 339.052,287.188 341.052,282.188 341.5,276.5C 342.167,274.833 342.833,273.167 343.5,271.5 Z"/></g>
<g><path style="opacity:1" fill="#d78f84" d="M 335.5,291.5 C 335.5,291.833 335.5,292.167 335.5,292.5C 334.833,293.833 333.833,294.833 332.5,295.5C 332.738,293.596 333.738,292.262 335.5,291.5 Z"/></g>
<g><path style="opacity:1" fill="#d56152" d="M 329.5,298.5 C 328.426,299.885 327.093,301.051 325.5,302C 326.167,302.333 326.833,302.667 327.5,303C 325.203,303.018 322.869,302.851 320.5,302.5C 323.088,300.408 326.088,299.075 329.5,298.5 Z"/></g>
<g><path style="opacity:1" fill="#d1584f" d="M 314.5,303.5 C 316.167,303.5 317.833,303.5 319.5,303.5C 318.391,304.29 317.058,304.79 315.5,305C 299.328,305.828 283.328,305.661 267.5,304.5C 283.342,304.83 299.009,304.496 314.5,303.5 Z"/></g>
<g><path style="opacity:1" fill="#ebcbc3" d="M 167.5,347.5 C 191.167,347.5 214.833,347.5 238.5,347.5C 238.5,362.167 238.5,376.833 238.5,391.5C 238.5,392.167 238.5,392.833 238.5,393.5C 238.167,393.5 237.833,393.5 237.5,393.5C 237.5,378.5 237.5,363.5 237.5,348.5C 213.994,348.831 190.661,348.498 167.5,347.5 Z"/></g>
<g><path style="opacity:1" fill="#eac8c1" d="M 436.5,345.5 C 436.119,346.931 435.119,347.764 433.5,348C 372.501,348.5 311.501,348.667 250.5,348.5C 250.172,359.346 250.506,370.013 251.5,380.5C 251.5,380.833 251.5,381.167 251.5,381.5C 249.522,370.549 248.856,359.216 249.5,347.5C 310.501,347.667 371.501,347.5 432.5,347C 433.745,346.209 435.078,345.709 436.5,345.5 Z"/></g>
<g><path style="opacity:1" fill="#d9a593" d="M 238.5,391.5 C 338.096,392.498 437.763,392.831 537.5,392.5C 537.833,392.5 538.167,392.5 538.5,392.5C 538.5,392.833 538.5,393.167 538.5,393.5C 438.5,393.5 338.5,393.5 238.5,393.5C 238.5,392.833 238.5,392.167 238.5,391.5 Z"/></g>
</svg>
