<?xml version="1.0" encoding="UTF-8"?>
<!DOCTYPE svg PUBLIC "-//W3C//DTD SVG 1.1//EN" "http://www.w3.org/Graphics/SVG/1.1/DTD/svg11.dtd">
<svg xmlns="http://www.w3.org/2000/svg" version="1.1" width="1500px" height="1500px" style="shape-rendering:geometricPrecision; text-rendering:geometricPrecision; image-rendering:optimizeQuality; fill-rule:evenodd; clip-rule:evenodd" xmlns:xlink="http://www.w3.org/1999/xlink">
<g><path style="opacity:1" fill="#fefefe" d="M -0.5,-0.5 C 499.5,-0.5 999.5,-0.5 1499.5,-0.5C 1499.5,499.5 1499.5,999.5 1499.5,1499.5C 999.5,1499.5 499.5,1499.5 -0.5,1499.5C -0.5,999.5 -0.5,499.5 -0.5,-0.5 Z"/></g>
<g><path style="opacity:1" fill="#67833a" d="M 272.5,691.5 C 278.833,691.5 285.167,691.5 291.5,691.5C 291.5,698.5 291.5,705.5 291.5,712.5C 298.5,712.5 305.5,712.5 312.5,712.5C 312.5,718.833 312.5,725.167 312.5,731.5C 305.5,731.5 298.5,731.5 291.5,731.5C 291.5,738.5 291.5,745.5 291.5,752.5C 285.167,752.5 278.833,752.5 272.5,752.5C 272.5,745.5 272.5,738.5 272.5,731.5C 265.167,731.5 257.833,731.5 250.5,731.5C 250.5,725.167 250.5,718.833 250.5,712.5C 257.833,712.5 265.167,712.5 272.5,712.5C 272.5,705.5 272.5,698.5 272.5,691.5 Z"/></g>
<g><path style="opacity:1" fill="#668239" d="M 380.5,700.5 C 388.984,701.493 397.651,701.826 406.5,701.5C 406.5,736.833 406.5,772.167 406.5,807.5C 394.833,807.5 383.167,807.5 371.5,807.5C 371.5,801.167 371.5,794.833 371.5,788.5C 366.833,788.5 362.167,788.5 357.5,788.5C 357.5,794.833 357.5,801.167 357.5,807.5C 345.833,807.5 334.167,807.5 322.5,807.5C 322.5,772.167 322.5,736.833 322.5,701.5C 331.349,701.826 340.016,701.493 348.5,700.5C 348.5,697.5 348.5,694.5 348.5,691.5C 358.833,691.5 369.167,691.5 379.5,691.5C 379.19,694.713 379.523,697.713 380.5,700.5 Z"/></g>
<g><path style="opacity:1" fill="#d9caa1" d="M 429.5,698.5 C 432.05,698.561 433.55,699.894 434,702.5C 434.667,733.5 434.667,764.5 434,795.5C 432,802.167 430,802.167 428,795.5C 427.333,764.167 427.333,732.833 428,701.5C 429.039,700.756 429.539,699.756 429.5,698.5 Z"/></g>
<g><path style="opacity:1" fill="#a1b286" d="M 348.5,700.5 C 340.016,701.493 331.349,701.826 322.5,701.5C 322.5,736.833 322.5,772.167 322.5,807.5C 321.502,772.004 321.168,736.337 321.5,700.5C 330.5,700.5 339.5,700.5 348.5,700.5 Z"/></g>
<g><path style="opacity:1" fill="#d9cba3" d="M 1095.5,708.5 C 1097.95,707.527 1100.61,707.194 1103.5,707.5C 1103.33,726.836 1103.5,746.17 1104,765.5C 1104.73,767.871 1105.57,770.205 1106.5,772.5C 1103.83,773.833 1101.17,773.833 1098.5,772.5C 1097.9,771.205 1097.4,769.872 1097,768.5C 1092.38,774.053 1086.55,775.886 1079.5,774C 1071.87,770.693 1067.7,764.859 1067,756.5C 1065.26,746.73 1068.09,738.563 1075.5,732C 1082.45,728.539 1089.28,728.705 1096,732.5C 1096.82,724.323 1096.66,716.323 1095.5,708.5 Z"/></g>
<g><path style="opacity:1" fill="#d9caa1" d="M 463.5,710.5 C 466.5,710.5 469.5,710.5 472.5,710.5C 472.948,733.878 472.448,757.211 471,780.5C 468.408,787.719 463.241,791.385 455.5,791.5C 455.215,789.712 455.548,788.045 456.5,786.5C 460.633,784.867 463.133,781.867 464,777.5C 464.812,755.124 464.645,732.79 463.5,710.5 Z"/></g>
<g><path style="opacity:1" fill="#dacba3" d="M 487.5,710.5 C 491.437,710.207 495.27,710.54 499,711.5C 505,727.5 511,743.5 517,759.5C 522.549,743.402 528.382,727.402 534.5,711.5C 538.107,710.511 541.774,710.177 545.5,710.5C 545.5,731.5 545.5,752.5 545.5,773.5C 542.833,773.5 540.167,773.5 537.5,773.5C 537.667,756.83 537.5,740.163 537,723.5C 530.803,739.756 524.803,756.09 519,772.5C 516.67,774.032 514.67,773.698 513,771.5C 507.197,755.09 501.197,738.756 495,722.5C 494.5,739.497 494.333,756.497 494.5,773.5C 492.167,773.5 489.833,773.5 487.5,773.5C 487.5,752.5 487.5,731.5 487.5,710.5 Z"/></g>
<g><path style="opacity:1" fill="#dacba3" d="M 576.5,710.5 C 579.5,710.5 582.5,710.5 585.5,710.5C 592.093,731.28 599.093,751.947 606.5,772.5C 603.5,773.833 600.5,773.833 597.5,772.5C 595.167,765.833 592.833,759.167 590.5,752.5C 583.276,751.188 576.109,751.188 569,752.5C 566.524,759.427 564.357,766.427 562.5,773.5C 559.813,773.664 557.146,773.497 554.5,773C 561.936,752.193 569.269,731.359 576.5,710.5 Z"/></g>
<g><path style="opacity:1" fill="#d9caa2" d="M 614.5,710.5 C 617.5,710.5 620.5,710.5 623.5,710.5C 623.5,731.5 623.5,752.5 623.5,773.5C 620.833,773.5 618.167,773.5 615.5,773.5C 615.799,752.467 615.466,731.467 614.5,710.5 Z"/></g>
<g><path style="opacity:1" fill="#d9caa2" d="M 705.5,710.5 C 708.5,710.5 711.5,710.5 714.5,710.5C 714.936,733.539 714.436,756.539 713,779.5C 710.97,787.443 705.803,791.443 697.5,791.5C 697.579,790.07 697.246,788.736 696.5,787.5C 702.266,785.667 705.433,781.667 706,775.5C 706.8,753.803 706.634,732.136 705.5,710.5 Z"/></g>
<g><path style="opacity:1" fill="#d9caa2" d="M 1001.5,710.5 C 1004.83,710.5 1008.17,710.5 1011.5,710.5C 1011.5,731.5 1011.5,752.5 1011.5,773.5C 1009.17,773.5 1006.83,773.5 1004.5,773.5C 1004.67,756.497 1004.5,739.497 1004,722.5C 1003.49,723.527 1002.99,724.527 1002.5,725.5C 996.437,741.356 990.77,757.356 985.5,773.5C 983.5,773.5 981.5,773.5 979.5,773.5C 974.23,757.356 968.563,741.356 962.5,725.5C 962.539,724.244 962.039,723.244 961,722.5C 960.5,739.497 960.333,756.497 960.5,773.5C 958.5,773.5 956.5,773.5 954.5,773.5C 954.788,752.473 954.454,731.473 953.5,710.5C 957.555,710.176 961.555,710.509 965.5,711.5C 971.333,727.167 977.167,742.833 983,758.5C 989.263,742.544 995.43,726.544 1001.5,710.5 Z"/></g>
<g><path style="opacity:1" fill="#eae3cd" d="M 1001.5,710.5 C 1004.96,709.518 1008.63,709.185 1012.5,709.5C 1012.83,731.007 1012.5,752.34 1011.5,773.5C 1011.5,752.5 1011.5,731.5 1011.5,710.5C 1008.17,710.5 1004.83,710.5 1001.5,710.5 Z"/></g>
<g><path style="opacity:1" fill="#dbcca6" d="M 1119.5,710.5 C 1126.75,710.555 1128.75,713.722 1125.5,720C 1120.64,721.753 1117.64,720.253 1116.5,715.5C 1117.09,713.577 1118.09,711.911 1119.5,710.5 Z"/></g>
<g><path style="opacity:1" fill="#fbfcfb" d="M 335.5,715.5 C 339.833,715.5 344.167,715.5 348.5,715.5C 348.5,719.833 348.5,724.167 348.5,728.5C 344.167,728.5 339.833,728.5 335.5,728.5C 335.5,724.167 335.5,719.833 335.5,715.5 Z"/></g>
<g><path style="opacity:1" fill="#b9c6a5" d="M 357.5,714.5 C 362.167,714.5 366.833,714.5 371.5,714.5C 371.5,719.167 371.5,723.833 371.5,728.5C 366.833,728.5 362.167,728.5 357.5,728.5C 357.5,723.833 357.5,719.167 357.5,714.5 Z"/></g>
<g><path style="opacity:1" fill="#fefffe" d="M 358.5,715.5 C 362.5,715.5 366.5,715.5 370.5,715.5C 370.5,719.5 370.5,723.5 370.5,727.5C 366.5,727.5 362.5,727.5 358.5,727.5C 358.5,723.5 358.5,719.5 358.5,715.5 Z"/></g>
<g><path style="opacity:1" fill="#fbfcfb" d="M 380.5,715.5 C 384.833,715.5 389.167,715.5 393.5,715.5C 393.5,719.833 393.5,724.167 393.5,728.5C 389.167,728.5 384.833,728.5 380.5,728.5C 380.5,724.167 380.5,719.833 380.5,715.5 Z"/></g>
<g><path style="opacity:1" fill="#dbcca6" d="M 829.5,717.5 C 831.167,717.5 832.833,717.5 834.5,717.5C 833.8,721.798 833.467,726.131 833.5,730.5C 837.182,730.335 840.848,730.501 844.5,731C 843.62,732.356 843.286,733.856 843.5,735.5C 840.167,735.5 836.833,735.5 833.5,735.5C 833.333,746.172 833.5,756.839 834,767.5C 837.057,768.451 840.223,768.784 843.5,768.5C 845.274,772.255 843.941,774.089 839.5,774C 832.378,776.026 827.878,773.526 826,766.5C 825.5,756.172 825.334,745.839 825.5,735.5C 823.5,735.5 821.5,735.5 819.5,735.5C 819.5,734.167 819.5,732.833 819.5,731.5C 826.214,729.427 829.547,724.76 829.5,717.5 Z"/></g>
<g><path style="opacity:1" fill="#fdfdfb" d="M 579.5,721.5 C 583.14,729.085 585.806,737.085 587.5,745.5C 582.125,745.828 576.792,745.495 571.5,744.5C 574.46,736.919 577.126,729.252 579.5,721.5 Z"/></g>
<g><path style="opacity:1" fill="#eae2cd" d="M 962.5,725.5 C 961.833,741.5 961.167,757.5 960.5,773.5C 960.333,756.497 960.5,739.497 961,722.5C 962.039,723.244 962.539,724.244 962.5,725.5 Z"/></g>
<g><path style="opacity:1" fill="#ece5d1" d="M 1004.5,773.5 C 1003.83,757.5 1003.17,741.5 1002.5,725.5C 1002.99,724.527 1003.49,723.527 1004,722.5C 1004.5,739.497 1004.67,756.497 1004.5,773.5 Z"/></g>
<g><path style="opacity:1" fill="#d9cba3" d="M 777.5,729.5 C 782.032,728.878 784.198,730.878 784,735.5C 790.954,728.839 798.621,727.839 807,732.5C 808.439,734.275 809.439,736.275 810,738.5C 810.5,750.162 810.667,761.829 810.5,773.5C 808.167,773.5 805.833,773.5 803.5,773.5C 803.667,762.495 803.5,751.495 803,740.5C 801.75,737.241 799.417,735.575 796,735.5C 791.841,736.079 788.175,737.746 785,740.5C 784.5,751.495 784.333,762.495 784.5,773.5C 782.167,773.5 779.833,773.5 777.5,773.5C 777.667,761.495 777.5,749.495 777,737.5C 776.697,735.112 775.863,732.945 774.5,731C 775.737,730.768 776.737,730.268 777.5,729.5 Z"/></g>
<g><path style="opacity:1" fill="#dacca5" d="M 860.5,729.5 C 865.179,729.334 869.845,729.501 874.5,730C 878.49,731.99 880.99,735.157 882,739.5C 882.333,748.833 882.667,758.167 883,767.5C 884.458,768.747 885.958,768.747 887.5,767.5C 890.571,771.304 889.571,773.47 884.5,774C 879.377,775.544 876.211,773.71 875,768.5C 867.441,775.832 859.774,776.165 852,769.5C 847.877,758.249 851.71,751.416 863.5,749C 867.152,748.501 870.818,748.335 874.5,748.5C 874.665,745.15 874.498,741.817 874,738.5C 871.487,734.788 867.987,733.622 863.5,735C 860.671,736.247 858.005,737.747 855.5,739.5C 854.059,738.135 852.726,736.635 851.5,735C 854.263,732.626 857.263,730.792 860.5,729.5 Z"/></g>
<g><path style="opacity:1" fill="#dacca4" d="M 904.5,729.5 C 908.182,729.335 911.848,729.501 915.5,730C 922.121,730.427 923.121,732.927 918.5,737.5C 913.267,733.626 908.101,733.626 903,737.5C 901.707,741.582 902.874,744.749 906.5,747C 913.082,749.03 918.248,752.863 922,758.5C 923.279,766.45 920.112,771.617 912.5,774C 906.606,775.037 900.939,774.371 895.5,772C 894.306,769.556 894.806,767.389 897,765.5C 899.479,767.917 902.479,768.917 906,768.5C 912.784,768.892 915.284,765.892 913.5,759.5C 909,756.415 904.333,753.582 899.5,751C 893.333,745.329 893,739.329 898.5,733C 900.432,731.541 902.432,730.375 904.5,729.5 Z"/></g>
<g><path style="opacity:1" fill="#dacca5" d="M 1036.5,729.5 C 1053.52,727.189 1060.86,734.522 1058.5,751.5C 1049.5,751.5 1040.5,751.5 1031.5,751.5C 1032.6,767.303 1040.43,771.97 1055,765.5C 1058.64,769.242 1057.81,771.742 1052.5,773C 1031.12,776.624 1021.62,767.457 1024,745.5C 1025.81,738.207 1029.97,732.874 1036.5,729.5 Z"/></g>
<g><path style="opacity:1" fill="#dacba4" d="M 1150.5,729.5 C 1154.18,729.335 1157.85,729.501 1161.5,730C 1164.74,730.288 1167.41,731.622 1169.5,734C 1168.73,735.775 1167.56,737.275 1166,738.5C 1156.08,731.707 1149.08,734.04 1145,745.5C 1142.56,764.235 1150.39,771.568 1168.5,767.5C 1169.33,768.451 1169.49,769.451 1169,770.5C 1149.53,778.732 1138.7,772.232 1136.5,751C 1136.97,741.043 1141.64,733.876 1150.5,729.5 Z"/></g>
<g><path style="opacity:1" fill="#dacca5" d="M 1186.5,729.5 C 1191.18,729.334 1195.85,729.501 1200.5,730C 1204.49,731.99 1206.99,735.157 1208,739.5C 1208.33,748.833 1208.67,758.167 1209,767.5C 1210.46,768.747 1211.96,768.747 1213.5,767.5C 1216.57,771.304 1215.57,773.47 1210.5,774C 1205.38,775.544 1202.21,773.71 1201,768.5C 1193.44,775.832 1185.77,776.165 1178,769.5C 1173.88,758.249 1177.71,751.416 1189.5,749C 1193.15,748.501 1196.82,748.335 1200.5,748.5C 1200.53,733.305 1194.2,730.305 1181.5,739.5C 1180.06,738.135 1178.73,736.635 1177.5,735C 1180.26,732.626 1183.26,730.792 1186.5,729.5 Z"/></g>
<g><path style="opacity:1" fill="#dacca5" d="M 1229.5,729.5 C 1233.51,729.334 1237.51,729.501 1241.5,730C 1248.12,730.427 1249.12,732.927 1244.5,737.5C 1239.23,733.616 1234.06,733.616 1229,737.5C 1228.29,739.899 1228.46,742.232 1229.5,744.5C 1233.51,747.505 1237.84,750.005 1242.5,752C 1248.99,756.745 1250.15,762.578 1246,769.5C 1238.43,775.147 1230.26,775.98 1221.5,772C 1220.31,769.556 1220.81,767.389 1223,765.5C 1225.48,767.917 1228.48,768.917 1232,768.5C 1238.78,768.892 1241.28,765.892 1239.5,759.5C 1235.49,756.495 1231.16,753.995 1226.5,752C 1217.88,743.225 1218.88,735.725 1229.5,729.5 Z"/></g>
<g><path style="opacity:1" fill="#dacba4" d="M 728.5,730.5 C 731.167,730.5 733.833,730.5 736.5,730.5C 736.333,741.172 736.5,751.839 737,762.5C 739.836,769.125 744.336,770.292 750.5,766C 751.667,764.833 752.833,763.667 754,762.5C 755.783,752.194 755.95,741.861 754.5,731.5C 757.086,730.52 759.753,730.187 762.5,730.5C 762.333,742.838 762.5,755.171 763,767.5C 764.458,768.747 765.958,768.747 767.5,767.5C 768.553,768.438 769.22,769.605 769.5,771C 763.468,776.325 758.634,775.492 755,768.5C 747.773,775.448 740.107,776.115 732,770.5C 730.803,767.911 729.803,765.244 729,762.5C 728.5,751.839 728.333,741.172 728.5,730.5 Z"/></g>
<g><path style="opacity:1" fill="#d9caa1" d="M 1117.5,731.5 C 1119.95,730.527 1122.61,730.194 1125.5,730.5C 1125.5,744.833 1125.5,759.167 1125.5,773.5C 1123.17,773.5 1120.83,773.5 1118.5,773.5C 1118.83,759.323 1118.5,745.323 1117.5,731.5 Z"/></g>
<g><path style="opacity:1" fill="#fdfdfc" d="M 1039.5,734.5 C 1047.35,734.018 1051.35,737.684 1051.5,745.5C 1045.17,745.5 1038.83,745.5 1032.5,745.5C 1032.81,740.526 1035.15,736.859 1039.5,734.5 Z"/></g>
<g><path style="opacity:1" fill="#fefefd" d="M 1081.5,735.5 C 1088.44,733.775 1093.28,736.108 1096,742.5C 1096.67,749.5 1096.67,756.5 1096,763.5C 1086.05,771.654 1079.05,769.654 1075,757.5C 1072.71,748.601 1074.87,741.268 1081.5,735.5 Z"/></g>
<g><path style="opacity:1" fill="#f5f7f3" d="M 335.5,736.5 C 339.833,736.5 344.167,736.5 348.5,736.5C 348.5,741.167 348.5,745.833 348.5,750.5C 344.167,750.5 339.833,750.5 335.5,750.5C 335.5,745.833 335.5,741.167 335.5,736.5 Z"/></g>
<g><path style="opacity:1" fill="#f5f7f3" d="M 380.5,736.5 C 384.833,736.5 389.167,736.5 393.5,736.5C 393.5,741.167 393.5,745.833 393.5,750.5C 389.167,750.5 384.833,750.5 380.5,750.5C 380.5,745.833 380.5,741.167 380.5,736.5 Z"/></g>
<g><path style="opacity:1" fill="#9dae80" d="M 380.5,700.5 C 389.5,700.5 398.5,700.5 407.5,700.5C 407.832,736.337 407.498,772.004 406.5,807.5C 406.5,772.167 406.5,736.833 406.5,701.5C 397.651,701.826 388.984,701.493 380.5,700.5 Z"/></g>
<g><path style="opacity:1" fill="#b8c5a3" d="M 357.5,736.5 C 362.167,736.5 366.833,736.5 371.5,736.5C 371.5,741.167 371.5,745.833 371.5,750.5C 366.833,750.5 362.167,750.5 357.5,750.5C 357.5,745.833 357.5,741.167 357.5,736.5 Z"/></g>
<g><path style="opacity:1" fill="#fefffe" d="M 358.5,737.5 C 362.5,737.5 366.5,737.5 370.5,737.5C 370.5,741.5 370.5,745.5 370.5,749.5C 366.5,749.5 362.5,749.5 358.5,749.5C 358.5,745.5 358.5,741.5 358.5,737.5 Z"/></g>
<g><path style="opacity:1" fill="#ebe4d0" d="M 655.5,747.5 C 655.5,749.5 655.5,751.5 655.5,753.5C 661.833,753.5 668.167,753.5 674.5,753.5C 674.5,751.5 674.5,749.5 674.5,747.5C 675.468,749.607 675.802,751.941 675.5,754.5C 668.5,754.5 661.5,754.5 654.5,754.5C 654.198,751.941 654.532,749.607 655.5,747.5 Z"/></g>
<g><path style="opacity:1" fill="#d8caa0" d="M 655.5,747.5 C 661.833,747.5 668.167,747.5 674.5,747.5C 674.5,749.5 674.5,751.5 674.5,753.5C 668.167,753.5 661.833,753.5 655.5,753.5C 655.5,751.5 655.5,749.5 655.5,747.5 Z"/></g>
<g><path style="opacity:1" fill="#fdfdfc" d="M 863.5,754.5 C 867.167,754.5 870.833,754.5 874.5,754.5C 874.635,765.217 869.635,769.384 859.5,767C 857.556,764.847 857.056,762.347 858,759.5C 859.73,757.598 861.563,755.931 863.5,754.5 Z"/></g>
<g><path style="opacity:1" fill="#fdfdfc" d="M 1189.5,754.5 C 1193.17,754.5 1196.83,754.5 1200.5,754.5C 1200.61,765.251 1195.61,769.417 1185.5,767C 1183.27,764.447 1182.94,761.614 1184.5,758.5C 1186.21,757.113 1187.88,755.779 1189.5,754.5 Z"/></g>
<g><path style="opacity:1" fill="#fcfdfc" d="M 335.5,758.5 C 339.833,758.5 344.167,758.5 348.5,758.5C 348.5,762.833 348.5,767.167 348.5,771.5C 344.167,771.5 339.833,771.5 335.5,771.5C 335.5,767.167 335.5,762.833 335.5,758.5 Z"/></g>
<g><path style="opacity:1" fill="#fcfdfc" d="M 380.5,758.5 C 384.833,758.5 389.167,758.5 393.5,758.5C 393.5,762.833 393.5,767.167 393.5,771.5C 389.167,771.5 384.833,771.5 380.5,771.5C 380.5,767.167 380.5,762.833 380.5,758.5 Z"/></g>
<g><path style="opacity:1" fill="#adbc95" d="M 358.5,758.5 C 358.5,762.833 358.5,767.167 358.5,771.5C 362.5,771.5 366.5,771.5 370.5,771.5C 370.5,767.167 370.5,762.833 370.5,758.5C 371.486,762.97 371.819,767.637 371.5,772.5C 366.833,772.5 362.167,772.5 357.5,772.5C 357.181,767.637 357.514,762.97 358.5,758.5 Z"/></g>
<g><path style="opacity:1" fill="#fcfdfc" d="M 358.5,758.5 C 362.5,758.5 366.5,758.5 370.5,758.5C 370.5,762.833 370.5,767.167 370.5,771.5C 366.5,771.5 362.5,771.5 358.5,771.5C 358.5,767.167 358.5,762.833 358.5,758.5 Z"/></g>
</svg>
