<?xml version="1.0" encoding="UTF-8"?>
<!DOCTYPE svg PUBLIC "-//W3C//DTD SVG 1.1//EN" "http://www.w3.org/Graphics/SVG/1.1/DTD/svg11.dtd">
<svg xmlns="http://www.w3.org/2000/svg" version="1.1" width="1500px" height="1500px" style="shape-rendering:geometricPrecision; text-rendering:geometricPrecision; image-rendering:optimizeQuality; fill-rule:evenodd; clip-rule:evenodd" xmlns:xlink="http://www.w3.org/1999/xlink">
<g><path style="opacity:1" fill="#000000" d="M -0.5,-0.5 C 499.5,-0.5 999.5,-0.5 1499.5,-0.5C 1499.5,499.5 1499.5,999.5 1499.5,1499.5C 999.5,1499.5 499.5,1499.5 -0.5,1499.5C -0.5,999.5 -0.5,499.5 -0.5,-0.5 Z"/></g>
<g><path style="opacity:1" fill="#fcfcfc" d="M 272.5,691.5 C 278.833,691.5 285.167,691.5 291.5,691.5C 291.5,698.5 291.5,705.5 291.5,712.5C 298.5,712.5 305.5,712.5 312.5,712.5C 312.5,718.833 312.5,725.167 312.5,731.5C 305.5,731.5 298.5,731.5 291.5,731.5C 291.5,738.5 291.5,745.5 291.5,752.5C 285.167,752.5 278.833,752.5 272.5,752.5C 272.5,745.5 272.5,738.5 272.5,731.5C 265.167,731.5 257.833,731.5 250.5,731.5C 250.5,725.167 250.5,718.833 250.5,712.5C 257.833,712.5 265.167,712.5 272.5,712.5C 272.5,705.5 272.5,698.5 272.5,691.5 Z"/></g>
<g><path style="opacity:1" fill="#fdfdfd" d="M 380.5,700.5 C 388.984,701.493 397.651,701.826 406.5,701.5C 406.5,736.833 406.5,772.167 406.5,807.5C 394.833,807.5 383.167,807.5 371.5,807.5C 371.5,801.167 371.5,794.833 371.5,788.5C 366.833,788.5 362.167,788.5 357.5,788.5C 357.5,794.833 357.5,801.167 357.5,807.5C 345.833,807.5 334.167,807.5 322.5,807.5C 322.5,772.167 322.5,736.833 322.5,701.5C 331.349,701.826 340.016,701.493 348.5,700.5C 348.5,697.5 348.5,694.5 348.5,691.5C 359.167,691.5 369.833,691.5 380.5,691.5C 380.5,694.5 380.5,697.5 380.5,700.5 Z"/></g>
<g><path style="opacity:1" fill="#fdfdfd" d="M 429.5,698.5 C 432.05,698.561 433.55,699.894 434,702.5C 434.667,733.5 434.667,764.5 434,795.5C 432.585,801.481 430.585,801.814 428,796.5C 427.333,764.833 427.333,733.167 428,701.5C 429.039,700.756 429.539,699.756 429.5,698.5 Z"/></g>
<g><path style="opacity:1" fill="#999999" d="M 348.5,700.5 C 340.016,701.493 331.349,701.826 322.5,701.5C 322.5,736.833 322.5,772.167 322.5,807.5C 321.502,772.004 321.168,736.337 321.5,700.5C 330.5,700.5 339.5,700.5 348.5,700.5 Z"/></g>
<g><path style="opacity:1" fill="#f6f6f6" d="M 1095.5,708.5 C 1097.95,707.527 1100.61,707.194 1103.5,707.5C 1103.33,726.836 1103.5,746.17 1104,765.5C 1104.73,767.871 1105.57,770.205 1106.5,772.5C 1103.83,773.833 1101.17,773.833 1098.5,772.5C 1097.9,771.205 1097.4,769.872 1097,768.5C 1091.21,774.482 1084.38,775.982 1076.5,773C 1067.37,764.722 1064.54,754.555 1068,742.5C 1073.8,729.264 1083.14,725.931 1096,732.5C 1096.82,724.323 1096.66,716.323 1095.5,708.5 Z"/></g>
<g><path style="opacity:1" fill="#666666" d="M 498.5,710.5 C 494.351,709.92 490.684,710.586 487.5,712.5C 486.596,711.791 486.263,710.791 486.5,709.5C 490.702,709.183 494.702,709.517 498.5,710.5 Z"/></g>
<g><path style="opacity:1" fill="#5e5e5e" d="M 714.5,710.5 C 711.287,710.19 708.287,710.523 705.5,711.5C 704.957,711.44 704.624,711.107 704.5,710.5C 707.98,709.194 711.313,709.194 714.5,710.5 Z"/></g>
<g><path style="opacity:1" fill="#fbfbfb" d="M 463.5,710.5 C 466.5,710.5 469.5,710.5 472.5,710.5C 472.948,733.878 472.448,757.211 471,780.5C 468.408,787.719 463.241,791.385 455.5,791.5C 455.215,789.712 455.548,788.045 456.5,786.5C 460.633,784.867 463.133,781.867 464,777.5C 464.812,755.124 464.645,732.79 463.5,710.5 Z"/></g>
<g><path style="opacity:1" fill="#f5f5f5" d="M 498.5,710.5 C 504.757,726.766 510.923,743.099 517,759.5C 522.549,743.402 528.382,727.402 534.5,711.5C 538.107,710.511 541.774,710.177 545.5,710.5C 545.5,731.5 545.5,752.5 545.5,773.5C 542.833,773.5 540.167,773.5 537.5,773.5C 537.667,756.83 537.5,740.163 537,723.5C 530.803,739.756 524.803,756.09 519,772.5C 516.67,774.032 514.67,773.698 513,771.5C 507,755.5 501,739.5 495,723.5C 494.5,740.163 494.333,756.83 494.5,773.5C 492.167,773.5 489.833,773.5 487.5,773.5C 487.5,753.167 487.5,732.833 487.5,712.5C 490.684,710.586 494.351,709.92 498.5,710.5 Z"/></g>
<g><path style="opacity:1" fill="#f6f6f6" d="M 576.5,710.5 C 579.5,710.5 582.5,710.5 585.5,710.5C 592.093,731.28 599.093,751.947 606.5,772.5C 603.5,773.833 600.5,773.833 597.5,772.5C 595.167,765.833 592.833,759.167 590.5,752.5C 583.276,751.188 576.109,751.188 569,752.5C 566.524,759.427 564.357,766.427 562.5,773.5C 559.813,773.664 557.146,773.497 554.5,773C 561.936,752.193 569.269,731.359 576.5,710.5 Z"/></g>
<g><path style="opacity:1" fill="#fafafa" d="M 614.5,711.5 C 617.287,710.523 620.287,710.19 623.5,710.5C 623.5,731.5 623.5,752.5 623.5,773.5C 620.833,773.5 618.167,773.5 615.5,773.5C 615.831,752.66 615.497,731.993 614.5,711.5 Z"/></g>
<g><path style="opacity:1" fill="#fafafa" d="M 714.5,710.5 C 714.936,733.539 714.436,756.539 713,779.5C 710.97,787.443 705.803,791.443 697.5,791.5C 697.579,790.07 697.246,788.736 696.5,787.5C 702.56,785.413 705.726,781.08 706,774.5C 706.81,753.457 706.644,732.457 705.5,711.5C 708.287,710.523 711.287,710.19 714.5,710.5 Z"/></g>
<g><path style="opacity:1" fill="#fafafa" d="M 1001.5,710.5 C 1004.83,710.5 1008.17,710.5 1011.5,710.5C 1011.5,731.5 1011.5,752.5 1011.5,773.5C 1009.17,773.5 1006.83,773.5 1004.5,773.5C 1004.67,756.497 1004.5,739.497 1004,722.5C 1003.49,723.527 1002.99,724.527 1002.5,725.5C 996.437,741.356 990.77,757.356 985.5,773.5C 983.5,773.5 981.5,773.5 979.5,773.5C 974.23,757.356 968.563,741.356 962.5,725.5C 962.539,724.244 962.039,723.244 961,722.5C 960.5,739.497 960.333,756.497 960.5,773.5C 958.5,773.5 956.5,773.5 954.5,773.5C 954.788,752.473 954.454,731.473 953.5,710.5C 957.555,710.176 961.555,710.509 965.5,711.5C 971.333,727.167 977.167,742.833 983,758.5C 989.263,742.544 995.43,726.544 1001.5,710.5 Z"/></g>
<g><path style="opacity:1" fill="#828282" d="M 1001.5,710.5 C 1004.96,709.518 1008.63,709.185 1012.5,709.5C 1012.83,731.007 1012.5,752.34 1011.5,773.5C 1011.5,752.5 1011.5,731.5 1011.5,710.5C 1008.17,710.5 1004.83,710.5 1001.5,710.5 Z"/></g>
<g><path style="opacity:1" fill="#efefef" d="M 1119.5,710.5 C 1126.75,710.555 1128.75,713.722 1125.5,720C 1120.64,721.753 1117.64,720.253 1116.5,715.5C 1117.09,713.577 1118.09,711.911 1119.5,710.5 Z"/></g>
<g><path style="opacity:1" fill="#070707" d="M 335.5,715.5 C 339.833,715.5 344.167,715.5 348.5,715.5C 348.5,719.833 348.5,724.167 348.5,728.5C 344.167,728.5 339.833,728.5 335.5,728.5C 335.5,724.167 335.5,719.833 335.5,715.5 Z"/></g>
<g><path style="opacity:1" fill="#717171" d="M 357.5,714.5 C 362.167,714.5 366.833,714.5 371.5,714.5C 371.5,719.167 371.5,723.833 371.5,728.5C 366.833,728.5 362.167,728.5 357.5,728.5C 357.5,723.833 357.5,719.167 357.5,714.5 Z"/></g>
<g><path style="opacity:1" fill="#000000" d="M 358.5,715.5 C 362.5,715.5 366.5,715.5 370.5,715.5C 370.5,719.5 370.5,723.5 370.5,727.5C 366.5,727.5 362.5,727.5 358.5,727.5C 358.5,723.5 358.5,719.5 358.5,715.5 Z"/></g>
<g><path style="opacity:1" fill="#070707" d="M 380.5,715.5 C 384.833,715.5 389.167,715.5 393.5,715.5C 393.5,719.833 393.5,724.167 393.5,728.5C 389.167,728.5 384.833,728.5 380.5,728.5C 380.5,724.167 380.5,719.833 380.5,715.5 Z"/></g>
<g><path style="opacity:1" fill="#eeeeee" d="M 829.5,717.5 C 831.167,717.5 832.833,717.5 834.5,717.5C 833.8,721.798 833.467,726.131 833.5,730.5C 837.182,730.335 840.848,730.501 844.5,731C 843.62,732.356 843.286,733.856 843.5,735.5C 840.167,735.5 836.833,735.5 833.5,735.5C 833.333,746.172 833.5,756.839 834,767.5C 837.057,768.451 840.223,768.784 843.5,768.5C 843.421,769.93 843.754,771.264 844.5,772.5C 838.685,775.433 833.185,775.1 828,771.5C 827.138,769.913 826.471,768.246 826,766.5C 825.5,756.172 825.334,745.839 825.5,735.5C 823.5,735.5 821.5,735.5 819.5,735.5C 819.5,734.167 819.5,732.833 819.5,731.5C 822.263,731.256 824.429,729.923 826,727.5C 827.782,724.368 828.948,721.035 829.5,717.5 Z"/></g>
<g><path style="opacity:1" fill="#0a0a0a" d="M 587.5,744.5 C 585.19,745.164 582.69,745.497 580,745.5C 577.071,745.475 574.571,744.809 572.5,743.5C 574.692,736.09 577.192,728.757 580,721.5C 583.006,729.019 585.506,736.686 587.5,744.5 Z"/></g>
<g><path style="opacity:1" fill="#838383" d="M 962.5,725.5 C 961.833,741.5 961.167,757.5 960.5,773.5C 960.333,756.497 960.5,739.497 961,722.5C 962.039,723.244 962.539,724.244 962.5,725.5 Z"/></g>
<g><path style="opacity:1" fill="#767676" d="M 1004.5,773.5 C 1003.83,757.5 1003.17,741.5 1002.5,725.5C 1002.99,724.527 1003.49,723.527 1004,722.5C 1004.5,739.497 1004.67,756.497 1004.5,773.5 Z"/></g>
<g><path style="opacity:1" fill="#f8f8f8" d="M 777.5,729.5 C 782.032,728.878 784.198,730.878 784,735.5C 790.954,728.839 798.621,727.839 807,732.5C 808.439,734.275 809.439,736.275 810,738.5C 810.5,750.162 810.667,761.829 810.5,773.5C 808.167,773.5 805.833,773.5 803.5,773.5C 803.667,762.495 803.5,751.495 803,740.5C 801.604,737.216 799.104,735.549 795.5,735.5C 791.55,736.225 788.05,737.892 785,740.5C 784.5,751.495 784.333,762.495 784.5,773.5C 782.167,773.5 779.833,773.5 777.5,773.5C 777.667,761.495 777.5,749.495 777,737.5C 776.697,735.112 775.863,732.945 774.5,731C 775.737,730.768 776.737,730.268 777.5,729.5 Z"/></g>
<g><path style="opacity:1" fill="#efefef" d="M 860.5,729.5 C 865.179,729.334 869.845,729.501 874.5,730C 878.49,731.99 880.99,735.157 882,739.5C 882.333,748.833 882.667,758.167 883,767.5C 884.458,768.747 885.958,768.747 887.5,767.5C 890.571,771.304 889.571,773.47 884.5,774C 879.377,775.544 876.211,773.71 875,768.5C 866.821,776.288 858.821,776.288 851,768.5C 848.27,757.565 852.437,751.065 863.5,749C 867.152,748.501 870.818,748.335 874.5,748.5C 876.835,737.335 872.502,733.168 861.5,736C 859.336,736.914 857.336,738.081 855.5,739.5C 854.059,738.135 852.726,736.635 851.5,735C 854.263,732.626 857.263,730.792 860.5,729.5 Z"/></g>
<g><path style="opacity:1" fill="#f1f1f1" d="M 904.5,729.5 C 908.846,729.334 913.179,729.501 917.5,730C 922.428,731.775 922.761,734.275 918.5,737.5C 913.195,733.736 908.029,733.736 903,737.5C 902.333,739.5 902.333,741.5 903,743.5C 906.943,747.221 911.443,750.055 916.5,752C 924.132,758.251 924.465,764.918 917.5,772C 910.152,775.275 902.818,775.275 895.5,772C 894.306,769.556 894.806,767.389 897,765.5C 899.479,767.917 902.479,768.917 906,768.5C 912.784,768.892 915.284,765.892 913.5,759.5C 909.494,756.495 905.16,753.995 900.5,752C 891.643,742.643 892.976,735.143 904.5,729.5 Z"/></g>
<g><path style="opacity:1" fill="#f4f4f4" d="M 1036.5,729.5 C 1053.52,727.189 1060.86,734.522 1058.5,751.5C 1049.5,751.5 1040.5,751.5 1031.5,751.5C 1032.44,767.138 1040.11,771.805 1054.5,765.5C 1058.73,768.995 1058.07,771.495 1052.5,773C 1031.12,776.624 1021.62,767.457 1024,745.5C 1025.81,738.207 1029.97,732.874 1036.5,729.5 Z"/></g>
<g><path style="opacity:1" fill="#f1f1f1" d="M 1150.5,729.5 C 1154.18,729.335 1157.85,729.501 1161.5,730C 1164.74,730.288 1167.41,731.622 1169.5,734C 1168.73,735.775 1167.56,737.275 1166,738.5C 1154.95,732.194 1147.95,735.194 1145,747.5C 1143.41,755.32 1145.58,761.82 1151.5,767C 1156.52,768.918 1161.52,768.751 1166.5,766.5C 1168.64,767.117 1169.47,768.451 1169,770.5C 1159.48,776.345 1150.48,775.679 1142,768.5C 1132.44,752.528 1135.27,739.528 1150.5,729.5 Z"/></g>
<g><path style="opacity:1" fill="#efefef" d="M 1186.5,729.5 C 1191.18,729.334 1195.85,729.501 1200.5,730C 1204.49,731.99 1206.99,735.157 1208,739.5C 1208.33,748.833 1208.67,758.167 1209,767.5C 1210.46,768.747 1211.96,768.747 1213.5,767.5C 1216.57,771.304 1215.57,773.47 1210.5,774C 1205.38,775.544 1202.21,773.71 1201,768.5C 1192.82,776.288 1184.82,776.288 1177,768.5C 1174.27,757.565 1178.44,751.065 1189.5,749C 1193.15,748.501 1196.82,748.335 1200.5,748.5C 1202.5,737.671 1198.17,733.504 1187.5,736C 1185.34,736.914 1183.34,738.081 1181.5,739.5C 1180.06,738.135 1178.73,736.635 1177.5,735C 1180.26,732.626 1183.26,730.792 1186.5,729.5 Z"/></g>
<g><path style="opacity:1" fill="#f1f1f1" d="M 1229.5,729.5 C 1233.51,729.334 1237.51,729.501 1241.5,730C 1248.12,730.427 1249.12,732.927 1244.5,737.5C 1239.2,733.736 1234.03,733.736 1229,737.5C 1227.71,741.582 1228.87,744.749 1232.5,747C 1239.08,749.03 1244.25,752.863 1248,758.5C 1249.28,766.45 1246.11,771.617 1238.5,774C 1231.63,775.405 1225.29,774.239 1219.5,770.5C 1220.67,768.833 1221.83,767.167 1223,765.5C 1225.48,767.917 1228.48,768.917 1232,768.5C 1238.78,768.892 1241.28,765.892 1239.5,759.5C 1235.49,756.495 1231.16,753.995 1226.5,752C 1217.88,743.225 1218.88,735.725 1229.5,729.5 Z"/></g>
<g><path style="opacity:1" fill="#f3f3f3" d="M 728.5,730.5 C 731.167,730.5 733.833,730.5 736.5,730.5C 736.333,741.172 736.5,751.839 737,762.5C 739.836,769.125 744.336,770.292 750.5,766C 751.667,764.833 752.833,763.667 754,762.5C 755.783,752.194 755.95,741.861 754.5,731.5C 757.086,730.52 759.753,730.187 762.5,730.5C 762.333,742.838 762.5,755.171 763,767.5C 764.458,768.747 765.958,768.747 767.5,767.5C 768.553,768.438 769.22,769.605 769.5,771C 763.511,776.334 758.678,775.501 755,768.5C 747.758,775.418 740.091,776.085 732,770.5C 731,768.167 730,765.833 729,763.5C 728.5,752.505 728.333,741.505 728.5,730.5 Z"/></g>
<g><path style="opacity:1" fill="#fefefe" d="M 1117.5,730.5 C 1120.17,730.5 1122.83,730.5 1125.5,730.5C 1125.5,744.833 1125.5,759.167 1125.5,773.5C 1123.17,773.5 1120.83,773.5 1118.5,773.5C 1118.78,759.131 1118.45,744.797 1117.5,730.5 Z"/></g>
<g><path style="opacity:1" fill="#0a0a0a" d="M 1051.5,745.5 C 1044.75,746.123 1038.41,745.456 1032.5,743.5C 1036.15,733.814 1041.99,732.147 1050,738.5C 1051.2,740.677 1051.7,743.011 1051.5,745.5 Z"/></g>
<g><path style="opacity:1" fill="#050505" d="M 1081.5,735.5 C 1088.44,733.775 1093.28,736.108 1096,742.5C 1096.67,749.5 1096.67,756.5 1096,763.5C 1086.1,771.657 1079.1,769.657 1075,757.5C 1072.71,748.641 1074.88,741.307 1081.5,735.5 Z"/></g>
<g><path style="opacity:1" fill="#131313" d="M 335.5,736.5 C 339.833,736.5 344.167,736.5 348.5,736.5C 348.5,741.167 348.5,745.833 348.5,750.5C 344.167,750.5 339.833,750.5 335.5,750.5C 335.5,745.833 335.5,741.167 335.5,736.5 Z"/></g>
<g><path style="opacity:1" fill="#131313" d="M 380.5,736.5 C 384.833,736.5 389.167,736.5 393.5,736.5C 393.5,741.167 393.5,745.833 393.5,750.5C 389.167,750.5 384.833,750.5 380.5,750.5C 380.5,745.833 380.5,741.167 380.5,736.5 Z"/></g>
<g><path style="opacity:1" fill="#a1a1a1" d="M 380.5,700.5 C 389.5,700.5 398.5,700.5 407.5,700.5C 407.832,736.337 407.498,772.004 406.5,807.5C 406.5,772.167 406.5,736.833 406.5,701.5C 397.651,701.826 388.984,701.493 380.5,700.5 Z"/></g>
<g><path style="opacity:1" fill="#a1a1a1" d="M 572.5,743.5 C 574.571,744.809 577.071,745.475 580,745.5C 582.69,745.497 585.19,745.164 587.5,744.5C 588.043,744.56 588.376,744.893 588.5,745.5C 582.872,746.495 577.206,746.829 571.5,746.5C 571.263,745.209 571.596,744.209 572.5,743.5 Z"/></g>
<g><path style="opacity:1" fill="#a5a5a5" d="M 1032.5,743.5 C 1038.41,745.456 1044.75,746.123 1051.5,745.5C 1045.02,746.491 1038.35,746.824 1031.5,746.5C 1031.26,745.209 1031.6,744.209 1032.5,743.5 Z"/></g>
<g><path style="opacity:1" fill="#f8f8f8" d="M 674.5,747.5 C 674.5,749.5 674.5,751.5 674.5,753.5C 668.167,753.5 661.833,753.5 655.5,753.5C 654.539,751.735 654.205,749.735 654.5,747.5C 661.167,747.5 667.833,747.5 674.5,747.5 Z"/></g>
<g><path style="opacity:1" fill="#747474" d="M 357.5,736.5 C 362.167,736.5 366.833,736.5 371.5,736.5C 371.5,741.167 371.5,745.833 371.5,750.5C 366.833,750.5 362.167,750.5 357.5,750.5C 357.5,745.833 357.5,741.167 357.5,736.5 Z"/></g>
<g><path style="opacity:1" fill="#000000" d="M 358.5,737.5 C 362.5,737.5 366.5,737.5 370.5,737.5C 370.5,741.5 370.5,745.5 370.5,749.5C 366.5,749.5 362.5,749.5 358.5,749.5C 358.5,745.5 358.5,741.5 358.5,737.5 Z"/></g>
<g><path style="opacity:1" fill="#7b7b7b" d="M 674.5,747.5 C 675.468,749.607 675.802,751.941 675.5,754.5C 668.646,754.824 661.979,754.491 655.5,753.5C 661.833,753.5 668.167,753.5 674.5,753.5C 674.5,751.5 674.5,749.5 674.5,747.5 Z"/></g>
<g><path style="opacity:1" fill="#080808" d="M 863.5,754.5 C 867.167,754.5 870.833,754.5 874.5,754.5C 874.622,765.232 869.622,769.399 859.5,767C 857.556,764.847 857.056,762.347 858,759.5C 859.73,757.598 861.563,755.931 863.5,754.5 Z"/></g>
<g><path style="opacity:1" fill="#080808" d="M 1189.5,754.5 C 1193.17,754.5 1196.83,754.5 1200.5,754.5C 1200.62,765.232 1195.62,769.399 1185.5,767C 1183.56,764.847 1183.06,762.347 1184,759.5C 1185.73,757.598 1187.56,755.931 1189.5,754.5 Z"/></g>
<g><path style="opacity:1" fill="#050505" d="M 335.5,758.5 C 339.833,758.5 344.167,758.5 348.5,758.5C 348.5,762.833 348.5,767.167 348.5,771.5C 344.167,771.5 339.833,771.5 335.5,771.5C 335.5,767.167 335.5,762.833 335.5,758.5 Z"/></g>
<g><path style="opacity:1" fill="#050505" d="M 380.5,758.5 C 384.833,758.5 389.167,758.5 393.5,758.5C 393.5,762.833 393.5,767.167 393.5,771.5C 389.167,771.5 384.833,771.5 380.5,771.5C 380.5,767.167 380.5,762.833 380.5,758.5 Z"/></g>
<g><path style="opacity:1" fill="#868686" d="M 358.5,758.5 C 358.5,762.833 358.5,767.167 358.5,771.5C 362.5,771.5 366.5,771.5 370.5,771.5C 370.5,767.167 370.5,762.833 370.5,758.5C 371.486,762.97 371.819,767.637 371.5,772.5C 366.833,772.5 362.167,772.5 357.5,772.5C 357.181,767.637 357.514,762.97 358.5,758.5 Z"/></g>
<g><path style="opacity:1" fill="#050505" d="M 358.5,758.5 C 362.5,758.5 366.5,758.5 370.5,758.5C 370.5,762.833 370.5,767.167 370.5,771.5C 366.5,771.5 362.5,771.5 358.5,771.5C 358.5,767.167 358.5,762.833 358.5,758.5 Z"/></g>
</svg>
