<?xml version="1.0" encoding="UTF-8"?>
<!DOCTYPE svg PUBLIC "-//W3C//DTD SVG 1.1//EN" "http://www.w3.org/Graphics/SVG/1.1/DTD/svg11.dtd">
<svg xmlns="http://www.w3.org/2000/svg" version="1.1" width="1500px" height="174px" style="shape-rendering:geometricPrecision; text-rendering:geometricPrecision; image-rendering:optimizeQuality; fill-rule:evenodd; clip-rule:evenodd" xmlns:xlink="http://www.w3.org/1999/xlink">
<g><path style="opacity:0.988" fill="#668139" d="M 32.5,-0.5 C 42.5,-0.5 52.5,-0.5 62.5,-0.5C 62.5,9.83333 62.5,20.1667 62.5,30.5C 73.1667,30.5 83.8333,30.5 94.5,30.5C 94.5,40.5 94.5,50.5 94.5,60.5C 83.8333,60.5 73.1667,60.5 62.5,60.5C 62.5,71.1667 62.5,81.8333 62.5,92.5C 52.5,92.5 42.5,92.5 32.5,92.5C 32.5,81.8333 32.5,71.1667 32.5,60.5C 21.8333,60.5 11.1667,60.5 0.5,60.5C 0.5,50.5 0.5,40.5 0.5,30.5C 11.1667,30.5 21.8333,30.5 32.5,30.5C 32.5,20.1667 32.5,9.83333 32.5,-0.5 Z"/></g>
<g><path style="opacity:0.981" fill="#658138" d="M 147.5,-0.5 C 163.5,-0.5 179.5,-0.5 195.5,-0.5C 195.5,4.16667 195.5,8.83333 195.5,13.5C 209.167,13.5 222.833,13.5 236.5,13.5C 236.5,66.8333 236.5,120.167 236.5,173.5C 218.167,173.5 199.833,173.5 181.5,173.5C 181.5,164.167 181.5,154.833 181.5,145.5C 175.167,145.5 168.833,145.5 162.5,145.5C 162.5,154.833 162.5,164.167 162.5,173.5C 144.167,173.5 125.833,173.5 107.5,173.5C 107.5,120.167 107.5,66.8333 107.5,13.5C 120.833,13.5 134.167,13.5 147.5,13.5C 147.5,8.83333 147.5,4.16667 147.5,-0.5 Z M 128.5,35.5 C 134.833,35.5 141.167,35.5 147.5,35.5C 147.5,41.8333 147.5,48.1667 147.5,54.5C 141.167,54.5 134.833,54.5 128.5,54.5C 128.5,48.1667 128.5,41.8333 128.5,35.5 Z M 162.5,35.5 C 168.833,35.5 175.167,35.5 181.5,35.5C 181.5,41.8333 181.5,48.1667 181.5,54.5C 175.167,54.5 168.833,54.5 162.5,54.5C 162.5,48.1667 162.5,41.8333 162.5,35.5 Z M 196.5,35.5 C 202.833,35.5 209.167,35.5 215.5,35.5C 215.5,41.8333 215.5,48.1667 215.5,54.5C 209.167,54.5 202.833,54.5 196.5,54.5C 196.5,48.1667 196.5,41.8333 196.5,35.5 Z M 128.5,68.5 C 134.833,68.5 141.167,68.5 147.5,68.5C 147.5,74.5 147.5,80.5 147.5,86.5C 141.167,86.5 134.833,86.5 128.5,86.5C 128.5,80.5 128.5,74.5 128.5,68.5 Z M 162.5,68.5 C 168.833,68.5 175.167,68.5 181.5,68.5C 181.5,74.5 181.5,80.5 181.5,86.5C 175.167,86.5 168.833,86.5 162.5,86.5C 162.5,80.5 162.5,74.5 162.5,68.5 Z M 196.5,68.5 C 202.833,68.5 209.167,68.5 215.5,68.5C 215.5,74.5 215.5,80.5 215.5,86.5C 209.167,86.5 202.833,86.5 196.5,86.5C 196.5,80.5 196.5,74.5 196.5,68.5 Z M 128.5,100.5 C 134.833,100.5 141.167,100.5 147.5,100.5C 147.5,106.833 147.5,113.167 147.5,119.5C 141.167,119.5 134.833,119.5 128.5,119.5C 128.5,113.167 128.5,106.833 128.5,100.5 Z M 162.5,100.5 C 168.833,100.5 175.167,100.5 181.5,100.5C 181.5,106.833 181.5,113.167 181.5,119.5C 175.167,119.5 168.833,119.5 162.5,119.5C 162.5,113.167 162.5,106.833 162.5,100.5 Z M 196.5,100.5 C 202.833,100.5 209.167,100.5 215.5,100.5C 215.5,106.833 215.5,113.167 215.5,119.5C 209.167,119.5 202.833,119.5 196.5,119.5C 196.5,113.167 196.5,106.833 196.5,100.5 Z"/></g>
<g><path style="opacity:0.95" fill="#d9caa1" d="M 270.5,9.5 C 274.468,10.0709 276.635,12.4043 277,16.5C 277.667,63.1667 277.667,109.833 277,156.5C 276.539,159.775 274.873,162.109 272,163.5C 268.285,161.759 266.285,158.759 266,154.5C 265.333,109.167 265.333,63.8333 266,18.5C 266.472,14.8895 267.972,11.8895 270.5,9.5 Z"/></g>
<g><path style="opacity:0.938" fill="#d9c9a1" d="M 1268.5,22.5 C 1272.83,22.5 1277.17,22.5 1281.5,22.5C 1281.33,51.8352 1281.5,81.1686 1282,110.5C 1282.46,114.393 1283.63,118.06 1285.5,121.5C 1281.78,122.944 1277.94,123.944 1274,124.5C 1272.74,122.236 1271.58,119.902 1270.5,117.5C 1259.74,125.73 1248.4,126.563 1236.5,120C 1228.31,111.943 1224.31,102.109 1224.5,90.5C 1226.25,61.3169 1240.92,50.9836 1268.5,59.5C 1269.73,47.1588 1269.73,34.8254 1268.5,22.5 Z M 1250.5,65.5 C 1259.99,64.5114 1266.16,68.5114 1269,77.5C 1269.67,87.1667 1269.67,96.8333 1269,106.5C 1259.58,117.034 1250.25,117.034 1241,106.5C 1236.75,95.9726 1236.42,85.306 1240,74.5C 1242.49,70.1675 1245.99,67.1675 1250.5,65.5 Z"/></g>
<g><path style="opacity:0.934" fill="#d8caa0" d="M 319.5,26.5 C 324.5,26.5 329.5,26.5 334.5,26.5C 334.959,61.5352 334.459,96.5352 333,131.5C 329.34,143.662 321.173,149.995 308.5,150.5C 307.841,147.545 307.508,144.545 307.5,141.5C 316.239,139.417 320.739,133.75 321,124.5C 321.667,94.1667 321.667,63.8333 321,33.5C 320.338,31.1873 319.838,28.854 319.5,26.5 Z"/></g>
<g><path style="opacity:0.946" fill="#d9c9a1" d="M 354.5,26.5 C 360.868,26.1703 367.202,26.5037 373.5,27.5C 382.502,51.5055 391.502,75.5055 400.5,99.5C 409.608,75.6137 418.442,51.6137 427,27.5C 432.741,26.5251 438.575,26.1918 444.5,26.5C 444.5,58.5 444.5,90.5 444.5,122.5C 440.167,122.5 435.833,122.5 431.5,122.5C 431.667,97.8311 431.5,73.1644 431,48.5C 421.932,73.2053 412.765,97.8719 403.5,122.5C 400.628,123.783 397.795,123.783 395,122.5C 386,97.8333 377,73.1667 368,48.5C 367.5,73.1644 367.333,97.8311 367.5,122.5C 363.833,122.5 360.167,122.5 356.5,122.5C 356.667,92.8315 356.5,63.1648 356,33.5C 355.56,31.1341 355.06,28.8008 354.5,26.5 Z"/></g>
<g><path style="opacity:0.941" fill="#d9caa1" d="M 489.5,26.5 C 494.099,26.2 498.599,26.5333 503,27.5C 513.932,58.7959 524.765,90.1292 535.5,121.5C 530.544,122.494 525.544,122.827 520.5,122.5C 517.574,112.056 514.241,101.723 510.5,91.5C 500.167,90.1667 489.833,90.1667 479.5,91.5C 475.759,101.723 472.426,112.056 469.5,122.5C 465.154,122.666 460.821,122.499 456.5,122C 467.999,90.3353 478.999,58.502 489.5,26.5 Z M 494.5,45.5 C 499.269,56.8053 503.269,68.472 506.5,80.5C 498.804,80.8308 491.138,80.4975 483.5,79.5C 487.574,68.2775 491.241,56.9442 494.5,45.5 Z"/></g>
<g><path style="opacity:0.933" fill="#d8c9a1" d="M 546.5,26.5 C 551.5,26.5 556.5,26.5 561.5,26.5C 561.5,58.5 561.5,90.5 561.5,122.5C 557.167,122.5 552.833,122.5 548.5,122.5C 548.667,93.4981 548.5,64.4981 548,35.5C 547.304,32.5219 546.804,29.5219 546.5,26.5 Z"/></g>
<g><path style="opacity:0.933" fill="#d8c9a0" d="M 682.5,26.5 C 687.5,26.5 692.5,26.5 697.5,26.5C 697.951,60.8647 697.451,95.198 696,129.5C 693.51,141.822 686.01,148.822 673.5,150.5C 670.829,148.236 669.496,145.236 669.5,141.5C 675.337,140.83 679.504,137.83 682,132.5C 682.945,128.886 683.612,125.219 684,121.5C 684.667,92.8333 684.667,64.1667 684,35.5C 683.304,32.5219 682.804,29.5219 682.5,26.5 Z"/></g>
<g><path style="opacity:0.933" fill="#d9caa1" d="M 1054.5,26.5 C 1060.83,26.5 1067.17,26.5 1073.5,26.5C 1082.22,51.1694 1091.06,75.8361 1100,100.5C 1108.72,76.0676 1117.72,51.7342 1127,27.5C 1132.41,26.5268 1137.91,26.1934 1143.5,26.5C 1143.5,58.5 1143.5,90.5 1143.5,122.5C 1139.17,122.5 1134.83,122.5 1130.5,122.5C 1130.67,98.4977 1130.5,74.4977 1130,50.5C 1120.86,74.754 1112.03,99.0873 1103.5,123.5C 1100.5,123.5 1097.5,123.5 1094.5,123.5C 1085.97,98.7573 1077.13,74.0907 1068,49.5C 1067.5,73.8311 1067.33,98.1644 1067.5,122.5C 1063.83,122.5 1060.17,122.5 1056.5,122.5C 1056.67,93.1648 1056.5,63.8314 1056,34.5C 1055.18,31.8832 1054.68,29.2165 1054.5,26.5 Z"/></g>
<g><path style="opacity:0.915" fill="#d9caa2" d="M 1304.5,27.5 C 1315.41,27.1614 1318.74,31.9947 1314.5,42C 1305.29,46.4796 1300.45,43.6463 1300,33.5C 1300.8,30.8541 1302.3,28.8541 1304.5,27.5 Z"/></g>
<g><path style="opacity:0.915" fill="#d8caa1" d="M 869.5,38.5 C 872.572,38.1826 875.572,38.5159 878.5,39.5C 876.943,45.4015 875.943,51.4015 875.5,57.5C 881.206,57.1712 886.872,57.5046 892.5,58.5C 891.518,61.0956 890.851,63.7623 890.5,66.5C 885.5,66.5 880.5,66.5 875.5,66.5C 875.333,81.1705 875.5,95.8371 876,110.5C 877.079,113.469 879.246,115.135 882.5,115.5C 884.833,114.833 887.167,114.167 889.5,113.5C 891.264,116.215 892.264,119.215 892.5,122.5C 885.204,124.73 877.87,124.897 870.5,123C 866.397,120.298 864.231,116.465 864,111.5C 863.5,96.5037 863.333,81.5037 863.5,66.5C 860.5,66.5 857.5,66.5 854.5,66.5C 854.5,63.8333 854.5,61.1667 854.5,58.5C 858.548,58.5589 861.715,56.8922 864,53.5C 866.337,48.6524 868.17,43.6524 869.5,38.5 Z"/></g>
<g><path style="opacity:0.907" fill="#d9c9a1" d="M 816.5,55.5 C 830.106,53.6363 838.273,59.303 841,72.5C 841.5,89.1633 841.667,105.83 841.5,122.5C 837.5,122.5 833.5,122.5 829.5,122.5C 829.667,106.163 829.5,89.8299 829,73.5C 827.566,68.45 824.233,66.1166 819,66.5C 812.988,67.0023 807.821,69.3357 803.5,73.5C 802.501,89.8197 802.167,106.153 802.5,122.5C 798.5,122.5 794.5,122.5 790.5,122.5C 790.667,105.163 790.5,87.8301 790,70.5C 789.339,66.3517 788.173,62.3517 786.5,58.5C 790.655,56.8152 794.988,56.1486 799.5,56.5C 799.544,59.3158 800.544,61.6492 802.5,63.5C 806.643,59.7663 811.31,57.0997 816.5,55.5 Z"/></g>
<g><path style="opacity:0.94" fill="#d9caa1" d="M 920.5,55.5 C 926.245,55.2111 931.912,55.7111 937.5,57C 943.164,59.3324 946.664,63.4991 948,69.5C 948.333,83.5 948.667,97.5 949,111.5C 949.7,113.032 950.866,114.032 952.5,114.5C 954.198,113.319 955.865,113.319 957.5,114.5C 958.265,116.295 958.932,118.128 959.5,120C 953.576,124.451 947.243,125.117 940.5,122C 938.959,120.421 937.792,118.587 937,116.5C 925.173,126.975 913.507,126.975 902,116.5C 896.344,100.312 901.844,90.1453 918.5,86C 924.769,84.7427 931.102,84.2427 937.5,84.5C 937.714,78.2649 936.38,72.4316 933.5,67C 924.131,63.953 915.797,65.7863 908.5,72.5C 906.142,70.9757 904.309,68.9757 903,66.5C 902.289,64.6332 902.789,63.1332 904.5,62C 909.603,58.9381 914.936,56.7714 920.5,55.5 Z M 928.5,93.5 C 931.5,93.5 934.5,93.5 937.5,93.5C 937.644,104.584 932.478,111.584 922,114.5C 913.321,113.85 910.321,109.517 913,101.5C 917.103,96.6413 922.269,93.9747 928.5,93.5 Z"/></g>
<g><path style="opacity:0.931" fill="#d9caa1" d="M 985.5,55.5 C 993.755,54.7499 1001.42,56.4166 1008.5,60.5C 1007.06,63.7282 1005.39,66.7282 1003.5,69.5C 995.538,63.0735 987.705,63.0735 980,69.5C 978.902,73.5052 979.735,77.0052 982.5,80C 988.008,83.2547 993.675,86.2547 999.5,89C 1008.17,94.6876 1011.01,102.521 1008,112.5C 1003.06,121.057 995.558,125.057 985.5,124.5C 978.833,124.417 972.5,122.917 966.5,120C 965.978,119.439 965.645,118.772 965.5,118C 966.802,115.222 968.468,112.722 970.5,110.5C 977.773,115.708 985.44,116.542 993.5,113C 996.769,109.547 997.269,105.714 995,101.5C 988.079,96.9547 980.912,92.788 973.5,89C 967.788,83.3306 965.955,76.4972 968,68.5C 971.638,61.1083 977.471,56.775 985.5,55.5 Z"/></g>
<g><path style="opacity:0.928" fill="#d9caa1" d="M 1184.5,55.5 C 1207.73,55.0724 1217.4,66.4058 1213.5,89.5C 1199.83,89.5 1186.17,89.5 1172.5,89.5C 1172.37,108.886 1181.71,116.719 1200.5,113C 1203.2,112.235 1205.7,111.068 1208,109.5C 1213.93,113.882 1213.76,117.715 1207.5,121C 1179.04,130.278 1163.04,120.111 1159.5,90.5C 1159.85,78.2728 1164.51,68.1061 1173.5,60C 1177.05,57.8792 1180.72,56.3792 1184.5,55.5 Z M 1186.5,64.5 C 1197,64.6686 1202,70.002 1201.5,80.5C 1192.14,80.8316 1182.81,80.4983 1173.5,79.5C 1175.42,72.2562 1179.75,67.2562 1186.5,64.5 Z"/></g>
<g><path style="opacity:0.927" fill="#d9caa1" d="M 1355.5,55.5 C 1364.08,54.8126 1372.08,56.6459 1379.5,61C 1380.02,61.5613 1380.36,62.228 1380.5,63C 1378.85,65.7952 1376.85,68.2952 1374.5,70.5C 1360.58,61.3573 1350.42,64.3573 1344,79.5C 1341.21,89.7913 1342.54,99.4579 1348,108.5C 1356.74,115.778 1366.08,116.445 1376,110.5C 1377.56,111.952 1378.9,113.619 1380,115.5C 1380.68,116.784 1380.52,117.951 1379.5,119C 1366.18,126.652 1353.18,126.318 1340.5,118C 1331.16,106.811 1327.99,93.9776 1331,79.5C 1334.46,66.541 1342.62,58.541 1355.5,55.5 Z"/></g>
<g><path style="opacity:0.941" fill="#d9caa1" d="M 1409.5,55.5 C 1416.86,54.7676 1423.86,55.9343 1430.5,59C 1433.49,61.9904 1435.66,65.4904 1437,69.5C 1437.33,83.5 1437.67,97.5 1438,111.5C 1438.67,112.833 1439.67,113.833 1441,114.5C 1442.81,113.24 1444.65,113.24 1446.5,114.5C 1447.27,116.295 1447.93,118.128 1448.5,120C 1448.09,120.945 1447.43,121.612 1446.5,122C 1441.23,124.328 1435.9,124.661 1430.5,123C 1428.38,121.269 1426.88,119.102 1426,116.5C 1417.3,124.467 1407.47,126.301 1396.5,122C 1386.21,112.03 1385.88,101.696 1395.5,91C 1404.82,85.8346 1414.82,83.6679 1425.5,84.5C 1425.67,80.1539 1425.5,75.8206 1425,71.5C 1424.29,69.9194 1423.46,68.4194 1422.5,67C 1413.13,63.953 1404.8,65.7863 1397.5,72.5C 1395.14,70.9757 1393.31,68.9757 1392,66.5C 1391.29,64.6332 1391.79,63.1332 1393.5,62C 1398.6,58.9381 1403.94,56.7714 1409.5,55.5 Z M 1416.5,93.5 C 1419.5,93.5 1422.5,93.5 1425.5,93.5C 1426.57,104.73 1421.73,111.73 1411,114.5C 1400.38,112.294 1398.21,106.794 1404.5,98C 1408.43,95.9716 1412.43,94.4716 1416.5,93.5 Z"/></g>
<g><path style="opacity:0.929" fill="#d9caa1" d="M 1474.5,55.5 C 1479.9,55.309 1485.23,55.809 1490.5,57C 1493.29,57.5609 1495.62,58.8942 1497.5,61C 1495.93,63.9835 1494.26,66.8168 1492.5,69.5C 1484.54,63.0735 1476.71,63.0735 1469,69.5C 1467.08,75.3826 1468.91,79.5493 1474.5,82C 1480.32,84.7453 1485.99,87.7453 1491.5,91C 1497.25,97.0196 1499.08,104.186 1497,112.5C 1492.06,121.057 1484.56,125.057 1474.5,124.5C 1467.83,124.417 1461.5,122.917 1455.5,120C 1454.98,119.439 1454.64,118.772 1454.5,118C 1455.8,115.222 1457.47,112.722 1459.5,110.5C 1466.77,115.708 1474.44,116.542 1482.5,113C 1485.77,109.547 1486.27,105.714 1484,101.5C 1477.08,96.9547 1469.91,92.788 1462.5,89C 1453.5,79.2029 1453.84,69.5363 1463.5,60C 1467.16,58.1776 1470.82,56.6776 1474.5,55.5 Z"/></g>
<g><path style="opacity:0.938" fill="#d9c9a1" d="M 716.5,57.5 C 721.167,57.5 725.833,57.5 730.5,57.5C 730.333,73.8367 730.5,90.1701 731,106.5C 732.455,111.634 735.788,113.967 741,113.5C 748.755,113.42 754.088,109.753 757,102.5C 757.667,89.1667 757.667,75.8333 757,62.5C 756.727,60.8988 756.227,59.3988 755.5,58C 760.155,57.5008 764.821,57.3342 769.5,57.5C 769.333,75.8364 769.5,94.1697 770,112.5C 770.689,113.357 771.522,114.023 772.5,114.5C 774.409,113.652 776.409,113.318 778.5,113.5C 778.756,115.937 779.423,118.271 780.5,120.5C 774.845,123.999 768.845,124.832 762.5,123C 760.383,121.269 758.883,119.102 758,116.5C 748.159,125.223 737.326,126.723 725.5,121C 722.067,117.896 719.9,114.063 719,109.5C 718.667,94.5 718.333,79.5 718,64.5C 717.338,62.1873 716.838,59.854 716.5,57.5 Z"/></g>
<g><path style="opacity:0.904" fill="#d9c9a0" d="M 1300.5,58.5 C 1304.97,57.5139 1309.64,57.1805 1314.5,57.5C 1314.5,79.1667 1314.5,100.833 1314.5,122.5C 1310.5,122.5 1306.5,122.5 1302.5,122.5C 1302.67,102.831 1302.5,83.1638 1302,63.5C 1301.8,61.6183 1301.3,59.9516 1300.5,58.5 Z"/></g>
<g><path style="opacity:0.947" fill="#d8c9a1" d="M 607.5,82.5 C 617.833,82.5 628.167,82.5 638.5,82.5C 638.5,86.1667 638.5,89.8333 638.5,93.5C 628.167,93.5 617.833,93.5 607.5,93.5C 607.5,89.8333 607.5,86.1667 607.5,82.5 Z"/></g>
</svg>
