<?xml version="1.0" encoding="UTF-8"?>
<!DOCTYPE svg PUBLIC "-//W3C//DTD SVG 1.1//EN" "http://www.w3.org/Graphics/SVG/1.1/DTD/svg11.dtd">
<svg xmlns="http://www.w3.org/2000/svg" version="1.1" width="1500px" height="1500px" style="shape-rendering:geometricPrecision; text-rendering:geometricPrecision; image-rendering:optimizeQuality; fill-rule:evenodd; clip-rule:evenodd" xmlns:xlink="http://www.w3.org/1999/xlink">
<g><path style="opacity:1" fill="#fefefe" d="M -0.5,-0.5 C 499.5,-0.5 999.5,-0.5 1499.5,-0.5C 1499.5,499.5 1499.5,999.5 1499.5,1499.5C 999.5,1499.5 499.5,1499.5 -0.5,1499.5C -0.5,999.5 -0.5,499.5 -0.5,-0.5 Z"/></g>
<g><path style="opacity:1" fill="#030303" d="M 272.5,691.5 C 278.833,691.5 285.167,691.5 291.5,691.5C 291.5,698.5 291.5,705.5 291.5,712.5C 298.5,712.5 305.5,712.5 312.5,712.5C 312.5,718.833 312.5,725.167 312.5,731.5C 305.5,731.5 298.5,731.5 291.5,731.5C 291.5,738.5 291.5,745.5 291.5,752.5C 285.167,752.5 278.833,752.5 272.5,752.5C 272.5,745.5 272.5,738.5 272.5,731.5C 265.167,731.5 257.833,731.5 250.5,731.5C 250.5,725.167 250.5,718.833 250.5,712.5C 257.833,712.5 265.167,712.5 272.5,712.5C 272.5,705.5 272.5,698.5 272.5,691.5 Z"/></g>
<g><path style="opacity:1" fill="#010101" d="M 380.5,700.5 C 388.984,701.493 397.651,701.826 406.5,701.5C 406.5,736.833 406.5,772.167 406.5,807.5C 394.833,807.5 383.167,807.5 371.5,807.5C 371.5,801.167 371.5,794.833 371.5,788.5C 366.833,788.5 362.167,788.5 357.5,788.5C 357.5,794.833 357.5,801.167 357.5,807.5C 345.833,807.5 334.167,807.5 322.5,807.5C 322.5,772.167 322.5,736.833 322.5,701.5C 331.349,701.826 340.016,701.493 348.5,700.5C 348.5,697.5 348.5,694.5 348.5,691.5C 358.833,691.5 369.167,691.5 379.5,691.5C 379.19,694.713 379.523,697.713 380.5,700.5 Z"/></g>
<g><path style="opacity:1" fill="#020202" d="M 429.5,698.5 C 432.05,698.561 433.55,699.894 434,702.5C 434.667,733.5 434.667,764.5 434,795.5C 432,802.167 430,802.167 428,795.5C 427.333,764.167 427.333,732.833 428,701.5C 429.039,700.756 429.539,699.756 429.5,698.5 Z"/></g>
<g><path style="opacity:1" fill="#656565" d="M 348.5,700.5 C 340.016,701.493 331.349,701.826 322.5,701.5C 322.5,736.833 322.5,772.167 322.5,807.5C 321.502,772.004 321.168,736.337 321.5,700.5C 330.5,700.5 339.5,700.5 348.5,700.5 Z"/></g>
<g><path style="opacity:1" fill="#5c5c5c" d="M 380.5,700.5 C 389.5,700.5 398.5,700.5 407.5,700.5C 407.832,736.337 407.498,772.004 406.5,807.5C 406.5,772.167 406.5,736.833 406.5,701.5C 397.651,701.826 388.984,701.493 380.5,700.5 Z"/></g>
<g><path style="opacity:1" fill="#090909" d="M 1095.5,708.5 C 1097.95,707.527 1100.61,707.194 1103.5,707.5C 1103.33,726.836 1103.5,746.17 1104,765.5C 1104.73,767.871 1105.57,770.205 1106.5,772.5C 1103.83,773.833 1101.17,773.833 1098.5,772.5C 1097.9,771.205 1097.4,769.872 1097,768.5C 1087.99,776.795 1079.32,776.461 1071,767.5C 1063.76,754.447 1065.26,742.614 1075.5,732C 1082.45,728.539 1089.28,728.705 1096,732.5C 1096.82,724.323 1096.66,716.323 1095.5,708.5 Z"/></g>
<g><path style="opacity:1" fill="#989898" d="M 498.5,710.5 C 494.351,709.92 490.684,710.586 487.5,712.5C 486.596,711.791 486.263,710.791 486.5,709.5C 490.702,709.183 494.702,709.517 498.5,710.5 Z"/></g>
<g><path style="opacity:1" fill="#030303" d="M 463.5,710.5 C 466.5,710.5 469.5,710.5 472.5,710.5C 472.948,733.878 472.448,757.211 471,780.5C 468.408,787.719 463.241,791.385 455.5,791.5C 455.215,789.712 455.548,788.045 456.5,786.5C 460.633,784.867 463.133,781.867 464,777.5C 464.812,755.124 464.645,732.79 463.5,710.5 Z"/></g>
<g><path style="opacity:1" fill="#050505" d="M 498.5,710.5 C 504.757,726.766 510.923,743.099 517,759.5C 522.735,743.462 528.568,727.462 534.5,711.5C 538.107,710.511 541.774,710.177 545.5,710.5C 545.5,731.5 545.5,752.5 545.5,773.5C 542.833,773.5 540.167,773.5 537.5,773.5C 537.667,756.83 537.5,740.163 537,723.5C 530.932,739.872 524.765,756.206 518.5,772.5C 516.326,773.893 514.493,773.56 513,771.5C 507.197,755.09 501.197,738.756 495,722.5C 494.5,739.497 494.333,756.497 494.5,773.5C 492.5,773.5 490.5,773.5 488.5,773.5C 488.81,753.121 488.477,732.787 487.5,712.5C 490.684,710.586 494.351,709.92 498.5,710.5 Z"/></g>
<g><path style="opacity:1" fill="#090909" d="M 576.5,710.5 C 579.5,710.5 582.5,710.5 585.5,710.5C 592.093,731.28 599.093,751.947 606.5,772.5C 603.572,773.484 600.572,773.817 597.5,773.5C 595.376,766.461 593.043,759.461 590.5,752.5C 583.276,751.188 576.109,751.188 569,752.5C 566.524,759.427 564.357,766.427 562.5,773.5C 559.813,773.664 557.146,773.497 554.5,773C 561.934,752.198 569.267,731.364 576.5,710.5 Z"/></g>
<g><path style="opacity:1" fill="#060606" d="M 614.5,711.5 C 617.287,710.523 620.287,710.19 623.5,710.5C 623.5,731.5 623.5,752.5 623.5,773.5C 620.833,773.5 618.167,773.5 615.5,773.5C 615.831,752.66 615.497,731.993 614.5,711.5 Z"/></g>
<g><path style="opacity:1" fill="#040404" d="M 705.5,710.5 C 708.5,710.5 711.5,710.5 714.5,710.5C 714.924,733.535 714.424,756.535 713,779.5C 710.97,787.443 705.803,791.443 697.5,791.5C 697.579,790.07 697.246,788.736 696.5,787.5C 702.274,785.64 705.441,781.64 706,775.5C 706.8,753.803 706.634,732.136 705.5,710.5 Z"/></g>
<g><path style="opacity:1" fill="#050505" d="M 1001.5,710.5 C 1004.83,710.5 1008.17,710.5 1011.5,710.5C 1011.5,731.5 1011.5,752.5 1011.5,773.5C 1009.17,773.5 1006.83,773.5 1004.5,773.5C 1004.67,756.497 1004.5,739.497 1004,722.5C 1003.49,723.527 1002.99,724.527 1002.5,725.5C 996.437,741.356 990.77,757.356 985.5,773.5C 983.5,773.5 981.5,773.5 979.5,773.5C 974.23,757.356 968.563,741.356 962.5,725.5C 962.539,724.244 962.039,723.244 961,722.5C 960.5,739.497 960.333,756.497 960.5,773.5C 958.5,773.5 956.5,773.5 954.5,773.5C 954.822,752.787 954.488,732.121 953.5,711.5C 957.5,710.167 961.5,710.167 965.5,711.5C 971.235,727.205 977.068,742.872 983,758.5C 989.263,742.544 995.43,726.544 1001.5,710.5 Z"/></g>
<g><path style="opacity:1" fill="#7b7b7b" d="M 1001.5,710.5 C 1004.96,709.518 1008.63,709.185 1012.5,709.5C 1012.83,731.007 1012.5,752.34 1011.5,773.5C 1011.5,752.5 1011.5,731.5 1011.5,710.5C 1008.17,710.5 1004.83,710.5 1001.5,710.5 Z"/></g>
<g><path style="opacity:1" fill="#121212" d="M 1119.5,710.5 C 1126.52,710.489 1128.52,713.489 1125.5,719.5C 1120.7,721.782 1117.7,720.449 1116.5,715.5C 1117.09,713.577 1118.09,711.911 1119.5,710.5 Z"/></g>
<g><path style="opacity:1" fill="#fafafa" d="M 335.5,715.5 C 339.833,715.5 344.167,715.5 348.5,715.5C 348.5,719.833 348.5,724.167 348.5,728.5C 344.167,728.5 339.833,728.5 335.5,728.5C 335.5,724.167 335.5,719.833 335.5,715.5 Z"/></g>
<g><path style="opacity:1" fill="#8c8c8c" d="M 357.5,714.5 C 362.167,714.5 366.833,714.5 371.5,714.5C 371.5,719.167 371.5,723.833 371.5,728.5C 366.833,728.5 362.167,728.5 357.5,728.5C 357.5,723.833 357.5,719.167 357.5,714.5 Z"/></g>
<g><path style="opacity:1" fill="#fefffe" d="M 358.5,715.5 C 362.5,715.5 366.5,715.5 370.5,715.5C 370.5,719.5 370.5,723.5 370.5,727.5C 366.5,727.5 362.5,727.5 358.5,727.5C 358.5,723.5 358.5,719.5 358.5,715.5 Z"/></g>
<g><path style="opacity:1" fill="#fafafa" d="M 380.5,715.5 C 384.833,715.5 389.167,715.5 393.5,715.5C 393.5,719.833 393.5,724.167 393.5,728.5C 389.167,728.5 384.833,728.5 380.5,728.5C 380.5,724.167 380.5,719.833 380.5,715.5 Z"/></g>
<g><path style="opacity:1" fill="#131313" d="M 829.5,717.5 C 831.167,717.5 832.833,717.5 834.5,717.5C 833.8,721.798 833.467,726.131 833.5,730.5C 837.182,730.335 840.848,730.501 844.5,731C 843.62,732.356 843.286,733.856 843.5,735.5C 840.167,735.5 836.833,735.5 833.5,735.5C 833.333,746.172 833.5,756.839 834,767.5C 837.057,768.451 840.223,768.784 843.5,768.5C 845.274,772.255 843.941,774.089 839.5,774C 832.378,776.026 827.878,773.526 826,766.5C 825.5,756.172 825.334,745.839 825.5,735.5C 823.5,735.5 821.5,735.5 819.5,735.5C 819.5,734.167 819.5,732.833 819.5,731.5C 822.707,730.974 825.207,729.308 827,726.5C 827.993,723.526 828.826,720.526 829.5,717.5 Z"/></g>
<g><path style="opacity:1" fill="#f4f4f4" d="M 587.5,744.5 C 582.36,745.488 577.026,745.821 571.5,745.5C 573.833,737.334 576.667,729.334 580,721.5C 583.006,729.019 585.506,736.686 587.5,744.5 Z"/></g>
<g><path style="opacity:1" fill="#7b7b7b" d="M 962.5,725.5 C 961.833,741.5 961.167,757.5 960.5,773.5C 960.333,756.497 960.5,739.497 961,722.5C 962.039,723.244 962.539,724.244 962.5,725.5 Z"/></g>
<g><path style="opacity:1" fill="#888888" d="M 1004.5,773.5 C 1003.83,757.5 1003.17,741.5 1002.5,725.5C 1002.99,724.527 1003.49,723.527 1004,722.5C 1004.5,739.497 1004.67,756.497 1004.5,773.5 Z"/></g>
<g><path style="opacity:1" fill="#080808" d="M 777.5,729.5 C 782.032,728.878 784.198,730.878 784,735.5C 791.394,728.443 799.228,727.776 807.5,733.5C 808.333,735.167 809.167,736.833 810,738.5C 810.5,750.162 810.667,761.829 810.5,773.5C 808.167,773.5 805.833,773.5 803.5,773.5C 803.667,762.495 803.5,751.495 803,740.5C 801.75,737.241 799.417,735.575 796,735.5C 791.841,736.079 788.175,737.746 785,740.5C 784.5,751.495 784.333,762.495 784.5,773.5C 782.167,773.5 779.833,773.5 777.5,773.5C 777.667,761.495 777.5,749.495 777,737.5C 776.697,735.112 775.863,732.945 774.5,731C 775.737,730.768 776.737,730.268 777.5,729.5 Z"/></g>
<g><path style="opacity:1" fill="#0f0f0f" d="M 860.5,729.5 C 865.179,729.334 869.845,729.501 874.5,730C 878.49,731.99 880.99,735.157 882,739.5C 882.333,748.833 882.667,758.167 883,767.5C 884.458,768.747 885.958,768.747 887.5,767.5C 890.571,771.304 889.571,773.47 884.5,774C 879.377,775.544 876.211,773.71 875,768.5C 869.356,773.87 862.856,775.37 855.5,773C 850.789,768.86 849.289,763.694 851,757.5C 854.033,753.062 858.2,750.229 863.5,749C 867.152,748.501 870.818,748.335 874.5,748.5C 874.665,745.15 874.498,741.817 874,738.5C 871.487,734.788 867.987,733.622 863.5,735C 860.671,736.247 858.005,737.747 855.5,739.5C 854.059,738.135 852.726,736.635 851.5,735C 854.564,733.141 857.564,731.308 860.5,729.5 Z"/></g>
<g><path style="opacity:1" fill="#0d0d0d" d="M 904.5,729.5 C 908.182,729.335 911.848,729.501 915.5,730C 922.121,730.427 923.121,732.927 918.5,737.5C 913.267,733.626 908.101,733.626 903,737.5C 902.289,739.899 902.456,742.232 903.5,744.5C 907.506,747.505 911.84,750.005 916.5,752C 922.986,756.745 924.152,762.578 920,769.5C 912.428,775.147 904.262,775.98 895.5,772C 894.306,769.556 894.806,767.389 897,765.5C 902.774,770.642 908.441,770.642 914,765.5C 914.687,763.432 914.52,761.432 913.5,759.5C 909,756.415 904.333,753.582 899.5,751C 893.323,745.288 892.99,739.288 898.5,733C 900.727,732.059 902.727,730.892 904.5,729.5 Z"/></g>
<g><path style="opacity:1" fill="#0d0d0d" d="M 1036.5,729.5 C 1053.52,727.189 1060.86,734.522 1058.5,751.5C 1049.5,751.5 1040.5,751.5 1031.5,751.5C 1032.55,767.283 1040.39,771.95 1055,765.5C 1057.37,766.927 1057.87,768.761 1056.5,771C 1033.22,778.738 1022.39,770.238 1024,745.5C 1025.81,738.207 1029.97,732.874 1036.5,729.5 Z"/></g>
<g><path style="opacity:1" fill="#0c0c0c" d="M 1150.5,729.5 C 1154.18,729.335 1157.85,729.501 1161.5,730C 1164.71,730.274 1167.38,731.607 1169.5,734C 1168.7,735.771 1167.53,737.271 1166,738.5C 1156.08,731.707 1149.08,734.04 1145,745.5C 1143.85,752.19 1144.85,758.524 1148,764.5C 1153.66,769.061 1159.83,769.728 1166.5,766.5C 1168.64,767.117 1169.47,768.451 1169,770.5C 1149.53,778.732 1138.7,772.232 1136.5,751C 1137.28,741.26 1141.95,734.093 1150.5,729.5 Z"/></g>
<g><path style="opacity:1" fill="#0a0a0a" d="M 1186.5,729.5 C 1191.18,729.334 1195.85,729.501 1200.5,730C 1202.61,731.141 1204.44,732.641 1206,734.5C 1207.29,745.069 1207.95,755.735 1208,766.5C 1209.4,768.527 1211.06,768.86 1213,767.5C 1214.72,769.202 1214.89,771.035 1213.5,773C 1207.45,776.153 1203.29,774.653 1201,768.5C 1193.44,775.832 1185.77,776.165 1178,769.5C 1173.88,758.249 1177.71,751.416 1189.5,749C 1193.15,748.501 1196.82,748.335 1200.5,748.5C 1200.67,745.15 1200.5,741.817 1200,738.5C 1197.49,734.788 1193.99,733.622 1189.5,735C 1186.67,736.247 1184,737.747 1181.5,739.5C 1180.06,738.135 1178.73,736.635 1177.5,735C 1180.3,732.696 1183.3,730.862 1186.5,729.5 Z"/></g>
<g><path style="opacity:1" fill="#0d0d0d" d="M 1230.5,729.5 C 1234.18,729.335 1237.85,729.501 1241.5,730C 1248.12,730.427 1249.12,732.927 1244.5,737.5C 1239.27,733.626 1234.1,733.626 1229,737.5C 1228.29,739.899 1228.46,742.232 1229.5,744.5C 1233.51,747.505 1237.84,750.005 1242.5,752C 1248.99,756.745 1250.15,762.578 1246,769.5C 1238.39,775.149 1230.22,775.982 1221.5,772C 1220.31,769.556 1220.81,767.389 1223,765.5C 1228.77,770.642 1234.44,770.642 1240,765.5C 1240.69,763.432 1240.52,761.432 1239.5,759.5C 1235,756.415 1230.33,753.582 1225.5,751C 1217.81,741.634 1219.48,734.467 1230.5,729.5 Z"/></g>
<g><path style="opacity:1" fill="#090909" d="M 728.5,730.5 C 731.167,730.5 733.833,730.5 736.5,730.5C 736.333,741.172 736.5,751.839 737,762.5C 739.836,769.125 744.336,770.292 750.5,766C 751.667,764.833 752.833,763.667 754,762.5C 755.783,752.194 755.95,741.861 754.5,731.5C 757.086,730.52 759.753,730.187 762.5,730.5C 762.333,742.838 762.5,755.171 763,767.5C 764.458,768.747 765.958,768.747 767.5,767.5C 768.553,768.438 769.22,769.605 769.5,771C 763.468,776.325 758.634,775.492 755,768.5C 747.773,775.448 740.107,776.115 732,770.5C 731.138,768.913 730.471,767.246 730,765.5C 729.747,753.808 729.247,742.142 728.5,730.5 Z"/></g>
<g><path style="opacity:1" fill="#000000" d="M 1117.5,731.5 C 1119.95,730.527 1122.61,730.194 1125.5,730.5C 1125.5,744.833 1125.5,759.167 1125.5,773.5C 1123.17,773.5 1120.83,773.5 1118.5,773.5C 1118.83,759.323 1118.5,745.323 1117.5,731.5 Z"/></g>
<g><path style="opacity:1" fill="#f7f7f7" d="M 1051.5,745.5 C 1044.75,746.123 1038.41,745.456 1032.5,743.5C 1036.15,733.814 1041.99,732.147 1050,738.5C 1051.2,740.677 1051.7,743.011 1051.5,745.5 Z"/></g>
<g><path style="opacity:1" fill="#fafafa" d="M 1081.5,735.5 C 1088.44,733.775 1093.28,736.108 1096,742.5C 1096.67,749.5 1096.67,756.5 1096,763.5C 1086.04,771.652 1079.04,769.652 1075,757.5C 1073.94,751.276 1074.61,745.276 1077,739.5C 1078.4,737.93 1079.9,736.596 1081.5,735.5 Z"/></g>
<g><path style="opacity:1" fill="#efefef" d="M 335.5,736.5 C 339.833,736.5 344.167,736.5 348.5,736.5C 348.5,741.167 348.5,745.833 348.5,750.5C 344.167,750.5 339.833,750.5 335.5,750.5C 335.5,745.833 335.5,741.167 335.5,736.5 Z"/></g>
<g><path style="opacity:1" fill="#efefef" d="M 380.5,736.5 C 384.833,736.5 389.167,736.5 393.5,736.5C 393.5,741.167 393.5,745.833 393.5,750.5C 389.167,750.5 384.833,750.5 380.5,750.5C 380.5,745.833 380.5,741.167 380.5,736.5 Z"/></g>
<g><path style="opacity:1" fill="#555555" d="M 587.5,744.5 C 588.043,744.56 588.376,744.893 588.5,745.5C 582.68,746.816 577.013,746.816 571.5,745.5C 577.026,745.821 582.36,745.488 587.5,744.5 Z"/></g>
<g><path style="opacity:1" fill="#595959" d="M 1032.5,743.5 C 1038.41,745.456 1044.75,746.123 1051.5,745.5C 1045.02,746.491 1038.35,746.824 1031.5,746.5C 1031.26,745.209 1031.6,744.209 1032.5,743.5 Z"/></g>
<g><path style="opacity:1" fill="#000000" d="M 674.5,747.5 C 674.5,749.5 674.5,751.5 674.5,753.5C 668.167,753.5 661.833,753.5 655.5,753.5C 655.5,751.5 655.5,749.5 655.5,747.5C 661.833,747.5 668.167,747.5 674.5,747.5 Z"/></g>
<g><path style="opacity:1" fill="#8a8a8a" d="M 357.5,736.5 C 362.167,736.5 366.833,736.5 371.5,736.5C 371.5,741.167 371.5,745.833 371.5,750.5C 366.833,750.5 362.167,750.5 357.5,750.5C 357.5,745.833 357.5,741.167 357.5,736.5 Z"/></g>
<g><path style="opacity:1" fill="#fefffe" d="M 358.5,737.5 C 362.5,737.5 366.5,737.5 370.5,737.5C 370.5,741.5 370.5,745.5 370.5,749.5C 366.5,749.5 362.5,749.5 358.5,749.5C 358.5,745.5 358.5,741.5 358.5,737.5 Z"/></g>
<g><path style="opacity:1" fill="#828282" d="M 674.5,747.5 C 675.468,749.607 675.802,751.941 675.5,754.5C 668.646,754.824 661.979,754.491 655.5,753.5C 661.833,753.5 668.167,753.5 674.5,753.5C 674.5,751.5 674.5,749.5 674.5,747.5 Z"/></g>
<g><path style="opacity:1" fill="#757575" d="M 866.5,754.5 C 869.287,753.523 872.287,753.19 875.5,753.5C 875.784,755.415 875.451,757.081 874.5,758.5C 874.5,757.167 874.5,755.833 874.5,754.5C 871.833,754.5 869.167,754.5 866.5,754.5 Z"/></g>
<g><path style="opacity:1" fill="#f6f6f6" d="M 866.5,754.5 C 869.167,754.5 871.833,754.5 874.5,754.5C 874.5,755.833 874.5,757.167 874.5,758.5C 871.952,768.197 866.452,770.53 858,765.5C 856.832,758.827 859.665,755.16 866.5,754.5 Z"/></g>
<g><path style="opacity:1" fill="#f5f5f5" d="M 1194.5,754.5 C 1196.5,754.5 1198.5,754.5 1200.5,754.5C 1200.5,755.833 1200.5,757.167 1200.5,758.5C 1198.93,766.232 1194.27,769.399 1186.5,768C 1181.93,762.426 1182.93,758.092 1189.5,755C 1191.13,754.506 1192.8,754.34 1194.5,754.5 Z"/></g>
<g><path style="opacity:1" fill="#5d5d5d" d="M 1194.5,754.5 C 1196.61,753.532 1198.94,753.198 1201.5,753.5C 1201.78,755.415 1201.45,757.081 1200.5,758.5C 1200.5,757.167 1200.5,755.833 1200.5,754.5C 1198.5,754.5 1196.5,754.5 1194.5,754.5 Z"/></g>
<g><path style="opacity:1" fill="#fbfbfb" d="M 335.5,758.5 C 339.833,758.5 344.167,758.5 348.5,758.5C 348.5,762.833 348.5,767.167 348.5,771.5C 344.167,771.5 339.833,771.5 335.5,771.5C 335.5,767.167 335.5,762.833 335.5,758.5 Z"/></g>
<g><path style="opacity:1" fill="#fbfbfb" d="M 380.5,758.5 C 384.833,758.5 389.167,758.5 393.5,758.5C 393.5,762.833 393.5,767.167 393.5,771.5C 389.167,771.5 384.833,771.5 380.5,771.5C 380.5,767.167 380.5,762.833 380.5,758.5 Z"/></g>
<g><path style="opacity:1" fill="#777777" d="M 358.5,758.5 C 358.5,762.833 358.5,767.167 358.5,771.5C 362.5,771.5 366.5,771.5 370.5,771.5C 370.5,767.167 370.5,762.833 370.5,758.5C 371.486,762.97 371.819,767.637 371.5,772.5C 366.833,772.5 362.167,772.5 357.5,772.5C 357.181,767.637 357.514,762.97 358.5,758.5 Z"/></g>
<g><path style="opacity:1" fill="#fbfbfb" d="M 358.5,758.5 C 362.5,758.5 366.5,758.5 370.5,758.5C 370.5,762.833 370.5,767.167 370.5,771.5C 366.5,771.5 362.5,771.5 358.5,771.5C 358.5,767.167 358.5,762.833 358.5,758.5 Z"/></g>
</svg>
